<svg width="213" height="248" viewBox="0 0 213 248" fill="none" xmlns="http://www.w3.org/2000/svg">
<path d="M50.9752 52.5041L52.3894 53.9183L53.8036 52.5041L52.3894 51.0899L50.9752 52.5041ZM39.9867 41.5157L38.5725 40.1014L37.1583 41.5157L38.5725 42.9299L39.9867 41.5157ZM45.2193 36.2831L44.4675 34.4297L44.0918 34.5821L43.8051 34.8688L45.2193 36.2831ZM80.4347 21.9981L81.8489 20.5839L80.9114 19.6464L79.6829 20.1448L80.4347 21.9981ZM86.7138 28.2772L88.128 29.6914L89.5422 28.2772L88.128 26.863L86.7138 28.2772ZM61.9636 53.0274L60.5494 51.6131L59.1352 53.0274L60.5494 54.4416L61.9636 53.0274ZM64.6846 55.7483L66.0988 57.1625L67.513 55.7483L66.0988 54.3341L64.6846 55.7483ZM59.452 60.9809L58.0378 62.3951L59.452 63.8093L60.8662 62.3951L59.452 60.9809ZM56.731 58.2599L58.1452 56.8457L56.731 55.4315L55.3168 56.8457L56.731 58.2599ZM50.0856 64.9053L48.6714 66.3195L50.0856 67.7338L51.4999 66.3195L50.0856 64.9053ZM44.3298 59.1495L42.9156 57.7353L41.5014 59.1495L42.9156 60.5637L44.3298 59.1495ZM56.2078 47.2715L54.7936 48.6857L56.2078 50.0999L57.622 48.6857L56.2078 47.2715ZM70.4927 32.9865L71.907 34.4007L73.3212 32.9865L71.907 31.5723L70.4927 32.9865ZM70.3881 32.8819L71.8023 31.4677L70.8409 30.5063L69.5933 31.0466L70.3881 32.8819ZM50.4519 41.5157L49.6571 39.6804L46.9574 40.8495L49.0377 42.9299L50.4519 41.5157ZM52.3894 51.0899L41.401 40.1014L38.5725 42.9299L49.561 53.9183L52.3894 51.0899ZM41.401 42.9299L46.6335 37.6973L43.8051 34.8688L38.5725 40.1014L41.401 42.9299ZM45.9711 38.1364L81.1865 23.8514L79.6829 20.1448L44.4675 34.4297L45.9711 38.1364ZM79.0205 23.4123L85.2996 29.6914L88.128 26.863L81.8489 20.5839L79.0205 23.4123ZM85.2996 26.863L60.5494 51.6131L63.3778 54.4416L88.128 29.6914L85.2996 26.863ZM60.5494 54.4416L63.2704 57.1625L66.0988 54.3341L63.3778 51.6131L60.5494 54.4416ZM63.2704 54.3341L58.0378 59.5667L60.8662 62.3951L66.0988 57.1625L63.2704 54.3341ZM60.8662 59.5667L58.1452 56.8457L55.3168 59.6742L58.0378 62.3951L60.8662 59.5667ZM55.3168 56.8457L48.6714 63.4911L51.4999 66.3195L58.1452 59.6742L55.3168 56.8457ZM51.4999 63.4911L45.744 57.7353L42.9156 60.5637L48.6714 66.3195L51.4999 63.4911ZM45.744 60.5637L52.3894 53.9183L49.561 51.0899L42.9156 57.7353L45.744 60.5637ZM57.622 48.6857L71.907 34.4007L69.0785 31.5723L54.7936 45.8573L57.622 48.6857ZM71.907 31.5723L71.8023 31.4677L68.9739 34.2961L69.0785 34.4007L71.907 31.5723ZM69.5933 31.0466L49.6571 39.6804L51.2467 43.3509L71.1829 34.7172L69.5933 31.0466ZM49.0377 42.9299L54.7936 48.6857L57.622 45.8573L51.8661 40.1014L49.0377 42.9299ZM59.3678 70.42L61.3666 70.4874L61.3666 70.4874L59.3678 70.42ZM92.2284 37.5593L92.2958 39.5582L92.2958 39.5582L92.2284 37.5593ZM105.205 50.5361L103.206 50.4688L103.206 50.4688L105.205 50.5361ZM72.3446 83.3968L72.2772 81.3979L72.2772 81.3979L72.3446 83.3968ZM64.8634 77.9012C62.3108 75.3486 61.2856 72.8907 61.3666 70.4874L57.3689 70.3526C57.2406 74.1587 58.9363 77.631 62.035 80.7296L64.8634 77.9012ZM61.3666 70.4874C61.4491 68.0395 62.6402 65.4759 65.3343 62.7818L62.5059 59.9534C59.3395 63.1198 57.4957 66.5911 57.3689 70.3526L61.3666 70.4874ZM65.3343 62.7818L84.5903 43.5259L81.7618 40.6975L62.5059 59.9534L65.3343 62.7818ZM84.5903 43.5259C87.2844 40.8318 89.848 39.6407 92.2958 39.5582L92.1611 35.5605C88.3996 35.6872 84.9282 37.5311 81.7618 40.6975L84.5903 43.5259ZM92.2958 39.5582C94.6991 39.4772 97.1571 40.5024 99.7096 43.055L102.538 40.2265C99.4394 37.1279 95.9671 35.4322 92.1611 35.5605L92.2958 39.5582ZM99.7096 43.055C102.262 45.6075 103.287 48.0655 103.206 50.4688L107.204 50.6035C107.332 46.7975 105.637 43.3252 102.538 40.2265L99.7096 43.055ZM103.206 50.4688C103.124 52.9166 101.933 55.4802 99.2387 58.1743L102.067 61.0027C105.233 57.8364 107.077 54.365 107.204 50.6035L103.206 50.4688ZM99.2387 58.1743L79.9828 77.4302L82.8112 80.2587L102.067 61.0027L99.2387 58.1743ZM79.9828 77.4302C77.2886 80.1244 74.7251 81.3154 72.2772 81.3979L72.412 85.3957C76.1735 85.2689 79.6448 83.4251 82.8112 80.2587L79.9828 77.4302ZM72.2772 81.3979C69.8739 81.479 67.416 80.4537 64.8634 77.9012L62.035 80.7296C65.1336 83.8282 68.6059 85.524 72.412 85.3957L72.2772 81.3979ZM67.2676 75.497C68.5585 76.7879 70.1621 77.5842 72.0109 77.4081C73.7653 77.241 75.3263 76.2319 76.6891 74.8691L73.8606 72.0407C72.8164 73.0849 72.075 73.3839 71.6317 73.4261C71.2829 73.4593 70.7935 73.3661 70.096 72.6686L67.2676 75.497ZM76.6891 74.8691L96.6775 54.8806L93.8491 52.0522L73.8606 72.0407L76.6891 74.8691ZM96.6775 54.8806C98.0403 53.5179 99.0495 51.9569 99.2165 50.2025C99.3926 48.3536 98.5964 46.75 97.3055 45.4591L94.477 48.2875C95.1745 48.985 95.2678 49.4744 95.2346 49.8233C95.1923 50.2666 94.8934 51.0079 93.8491 52.0522L96.6775 54.8806ZM97.3055 45.4591C96.0145 44.1682 94.4109 43.372 92.5621 43.548C90.8077 43.7151 89.2467 44.7243 87.884 46.087L90.7124 48.9155C91.7566 47.8712 92.498 47.5722 92.9413 47.53C93.2901 47.4968 93.7796 47.5901 94.477 48.2875L97.3055 45.4591ZM87.884 46.087L67.8955 66.0755L70.7239 68.904L90.7124 48.9155L87.884 46.087ZM67.8955 66.0755C66.5327 67.4383 65.5236 68.9993 65.3565 70.7536C65.1804 72.6025 65.9766 74.2061 67.2676 75.497L70.096 72.6686C69.3985 71.9711 69.3052 71.4817 69.3385 71.1329C69.3807 70.6896 69.6797 69.9482 70.7239 68.904L67.8955 66.0755ZM92.8768 94.4057L94.291 95.8199L95.7052 94.4057L94.291 92.9915L92.8768 94.4057ZM81.8883 83.4173L80.4741 82.003L79.0599 83.4173L80.4741 84.8315L81.8883 83.4173ZM87.1209 78.1847L86.3691 76.3313L85.9934 76.4837L85.7067 76.7704L87.1209 78.1847ZM122.336 63.8997L123.75 62.4855L122.813 61.548L121.584 62.0464L122.336 63.8997ZM128.615 70.1788L130.03 71.593L131.444 70.1788L130.03 68.7646L128.615 70.1788ZM103.865 94.929L102.451 93.5147L101.037 94.929L102.451 96.3432L103.865 94.929ZM106.586 97.6499L108 99.0641L109.415 97.6499L108 96.2357L106.586 97.6499ZM101.354 102.882L99.9394 104.297L101.354 105.711L102.768 104.297L101.354 102.882ZM98.6326 100.162L100.047 98.7473L98.6326 97.3331L97.2184 98.7473L98.6326 100.162ZM91.9872 106.807L90.573 108.221L91.9872 109.635L93.4015 108.221L91.9872 106.807ZM86.2314 101.051L84.8172 99.6369L83.403 101.051L84.8172 102.465L86.2314 101.051ZM98.1094 89.1731L96.6952 90.5873L98.1094 92.0015L99.5236 90.5873L98.1094 89.1731ZM112.394 74.8881L113.809 76.3023L115.223 74.8881L113.809 73.4739L112.394 74.8881ZM112.29 74.7835L113.704 73.3693L112.743 72.4079L111.495 72.9482L112.29 74.7835ZM92.3535 83.4173L91.5587 81.582L88.859 82.7511L90.9393 84.8315L92.3535 83.4173ZM94.291 92.9915L83.3026 82.003L80.4741 84.8315L91.4626 95.8199L94.291 92.9915ZM83.3026 84.8315L88.5351 79.5989L85.7067 76.7704L80.4741 82.003L83.3026 84.8315ZM87.8727 80.038L123.088 65.753L121.584 62.0464L86.3691 76.3313L87.8727 80.038ZM120.922 65.3139L127.201 71.593L130.03 68.7646L123.75 62.4855L120.922 65.3139ZM127.201 68.7646L102.451 93.5147L105.279 96.3432L130.03 71.593L127.201 68.7646ZM102.451 96.3432L105.172 99.0641L108 96.2357L105.279 93.5147L102.451 96.3432ZM105.172 96.2357L99.9394 101.468L102.768 104.297L108 99.0641L105.172 96.2357ZM102.768 101.468L100.047 98.7473L97.2184 101.576L99.9394 104.297L102.768 101.468ZM97.2184 98.7473L90.573 105.393L93.4015 108.221L100.047 101.576L97.2184 98.7473ZM93.4015 105.393L87.6456 99.6369L84.8172 102.465L90.573 108.221L93.4015 105.393ZM87.6456 102.465L94.291 95.8199L91.4626 92.9915L84.8172 99.6369L87.6456 102.465ZM99.5236 90.5873L113.809 76.3023L110.98 73.4739L96.6952 87.7589L99.5236 90.5873ZM113.809 73.4739L113.704 73.3693L110.875 76.1977L110.98 76.3023L113.809 73.4739ZM111.495 72.9482L91.5587 81.582L93.1483 85.2525L113.084 76.6188L111.495 72.9482ZM90.9393 84.8315L96.6952 90.5873L99.5236 87.7589L93.7677 82.003L90.9393 84.8315ZM142.563 84.1261L143.977 82.7119L142.563 81.2977L141.148 82.7119L142.563 84.1261ZM158.26 99.8239L159.675 101.238L161.089 99.8239L159.675 98.4097L158.26 99.8239ZM153.028 105.056L151.614 106.471L153.028 107.885L154.442 106.471L153.028 105.056ZM143.086 95.1145L144.5 93.7003L143.086 92.2861L141.672 93.7003L143.086 95.1145ZM133.406 104.795L131.991 103.381L130.577 104.795L131.991 106.209L133.406 104.795ZM141.307 112.696L142.721 114.11L144.135 112.696L142.721 111.282L141.307 112.696ZM136.074 117.929L134.66 119.343L136.074 120.757L137.488 119.343L136.074 117.929ZM128.173 110.027L129.587 108.613L128.173 107.199L126.759 108.613L128.173 110.027ZM116.923 121.277L115.509 119.863L114.095 121.277L115.509 122.692L116.923 121.277ZM126.865 131.219L128.279 132.634L129.693 131.219L128.279 129.805L126.865 131.219ZM121.632 136.452L120.218 137.866L121.632 139.28L123.047 137.866L121.632 136.452ZM105.935 120.754L104.52 119.34L103.106 120.754L104.52 122.168L105.935 120.754ZM141.148 85.5403L156.846 101.238L159.675 98.4097L143.977 82.7119L141.148 85.5403ZM156.846 98.4097L151.614 103.642L154.442 106.471L159.675 101.238L156.846 98.4097ZM154.442 103.642L144.5 93.7003L141.672 96.5288L151.614 106.471L154.442 103.642ZM141.672 93.7003L131.991 103.381L134.82 106.209L144.5 96.5288L141.672 93.7003ZM131.991 106.209L139.893 114.11L142.721 111.282L134.82 103.381L131.991 106.209ZM139.893 111.282L134.66 116.514L137.488 119.343L142.721 114.11L139.893 111.282ZM137.488 116.514L129.587 108.613L126.759 111.442L134.66 119.343L137.488 116.514ZM126.759 108.613L115.509 119.863L118.337 122.692L129.587 111.442L126.759 108.613ZM115.509 122.692L125.451 132.634L128.279 129.805L118.337 119.863L115.509 122.692ZM125.451 129.805L120.218 135.038L123.047 137.866L128.279 132.634L125.451 129.805ZM123.047 135.038L107.349 119.34L104.52 122.168L120.218 137.866L123.047 135.038ZM107.349 122.168L143.977 85.5403L141.148 82.7119L104.52 119.34L107.349 122.168ZM161.572 103.135L162.986 101.721L161.572 100.307L160.157 101.721L161.572 103.135ZM174.496 120.246L172.496 120.22L172.496 120.233L172.496 120.246L174.496 120.246ZM156.967 134.321L157.75 132.481L156.508 131.952L155.553 132.907L156.967 134.321ZM156.862 134.426L155.448 133.012L154.396 134.064L155.101 135.374L156.862 134.426ZM157.229 139.92L155.369 139.184L155.361 139.204L155.353 139.226L157.229 139.92ZM144.043 155.095L142.488 153.836L142.481 153.845L144.043 155.095ZM142.682 157.502L141.268 158.916L143.444 161.092L144.549 158.22L142.682 157.502ZM136.822 151.641L135.017 150.778L134.407 152.055L135.407 153.055L136.822 151.641ZM150.165 135.577L148.178 135.344L148.175 135.375L148.172 135.406L150.165 135.577ZM146.397 129.821L147.811 128.407L146.397 126.993L144.983 128.407L146.397 129.821ZM130.699 145.519L129.285 146.933L130.699 148.348L132.114 146.933L130.699 145.519ZM124.944 139.763L123.529 138.349L122.115 139.763L123.529 141.177L124.944 139.763ZM157.176 128.356V126.356L157.146 126.356L157.116 126.357L157.176 128.356ZM166.019 119.827L164.037 119.563L164.032 119.599L164.029 119.634L166.019 119.827ZM162.095 114.124L163.509 112.709L162.095 111.295L160.681 112.709L162.095 114.124ZM151.63 124.589L150.216 123.175L148.801 124.589L150.216 126.003L151.63 124.589ZM160.157 104.549L168.687 113.078L171.515 110.25L162.986 101.721L160.157 104.549ZM168.687 113.078C171.467 115.858 172.522 118.229 172.496 120.22L176.496 120.271C176.541 116.751 174.665 113.4 171.515 110.25L168.687 113.078ZM172.496 120.246C172.496 122.226 171.458 124.537 168.791 127.204L171.62 130.032C174.674 126.978 176.496 123.708 176.496 120.246L172.496 120.246ZM168.791 127.204L166.541 129.454L169.37 132.282L171.62 130.032L168.791 127.204ZM166.541 129.454C164.782 131.213 163.183 132.227 161.757 132.675C160.379 133.108 159.073 133.044 157.75 132.481L156.184 136.162C158.385 137.099 160.672 137.209 162.956 136.491C165.193 135.788 167.327 134.325 169.37 132.282L166.541 129.454ZM155.553 132.907L155.448 133.012L158.277 135.84L158.381 135.736L155.553 132.907ZM155.101 135.374C155.81 136.69 155.876 137.906 155.369 139.184L159.088 140.657C160.047 138.237 159.868 135.79 158.623 133.478L155.101 135.374ZM155.353 139.226C154.794 140.735 153.579 142.52 151.524 144.576L154.352 147.404C156.622 145.134 158.268 142.873 159.104 140.615L155.353 139.226ZM151.524 144.576L145.088 151.012L147.916 153.84L154.352 147.404L151.524 144.576ZM145.088 151.012C144.016 152.083 143.142 153.028 142.488 153.836L145.597 156.353C146.129 155.696 146.895 154.862 147.916 153.84L145.088 151.012ZM142.481 153.845C141.784 154.717 141.232 155.702 140.815 156.784L144.549 158.22C144.83 157.488 145.185 156.868 145.604 156.344L142.481 153.845ZM144.096 156.088L138.236 150.227L135.407 153.055L141.268 158.916L144.096 156.088ZM138.626 152.504C138.961 151.803 139.31 151.228 139.666 150.763L136.489 148.333C135.937 149.054 135.45 149.874 135.017 150.778L138.626 152.504ZM139.666 150.763C140.029 150.289 140.847 149.398 142.213 148.032L139.384 145.204C138.029 146.559 137.033 147.622 136.489 148.333L139.666 150.763ZM142.213 148.032L148.91 141.334L146.082 138.506L139.384 145.204L142.213 148.032ZM148.91 141.334C150.65 139.595 151.989 137.713 152.157 135.748L148.172 135.406C148.131 135.883 147.691 136.897 146.082 138.506L148.91 141.334ZM152.151 135.811C152.395 133.737 151.31 131.905 149.8 130.396L146.971 133.224C148.113 134.365 148.213 135.045 148.178 135.344L152.151 135.811ZM149.8 130.396L147.811 128.407L144.983 131.236L146.971 133.224L149.8 130.396ZM144.983 128.407L129.285 144.105L132.114 146.933L147.811 131.236L144.983 128.407ZM132.114 144.105L126.358 138.349L123.529 141.177L129.285 146.933L132.114 144.105ZM126.358 141.177L162.986 104.549L160.157 101.721L123.529 138.349L126.358 141.177ZM152.309 128.096C153.685 129.472 155.338 130.413 157.237 130.355L157.116 126.357C156.712 126.369 156.063 126.193 155.137 125.268L152.309 128.096ZM157.176 130.356C159.152 130.356 160.928 129.212 162.463 127.677L159.634 124.849C158.378 126.105 157.572 126.356 157.176 126.356V130.356ZM162.463 127.677L165.288 124.852L162.46 122.023L159.634 124.849L162.463 127.677ZM165.288 124.852C166.726 123.414 167.838 121.795 168.01 120.02L164.029 119.634C163.991 120.022 163.673 120.81 162.46 122.023L165.288 124.852ZM168.002 120.091C168.251 118.225 167.41 116.61 166.125 115.326L163.297 118.154C164.036 118.893 164.067 119.336 164.037 119.563L168.002 120.091ZM166.125 115.326L163.509 112.709L160.681 115.538L163.297 118.154L166.125 115.326ZM160.681 112.709L150.216 123.175L153.044 126.003L163.509 115.538L160.681 112.709ZM150.216 126.003L152.309 128.096L155.137 125.268L153.044 123.175L150.216 126.003ZM182.676 124.239L184.09 122.825L182.676 121.411L181.262 122.825L182.676 124.239ZM195.6 141.35L193.6 141.324L193.6 141.337L193.6 141.35L195.6 141.35ZM178.071 155.425L178.855 153.585L177.612 153.056L176.657 154.011L178.071 155.425ZM177.966 155.53L176.552 154.116L175.5 155.168L176.206 156.478L177.966 155.53ZM178.333 161.024L176.473 160.288L176.465 160.309L176.457 160.33L178.333 161.024ZM165.147 176.199L163.592 174.94L163.585 174.949L165.147 176.199ZM163.786 178.606L162.372 180.02L164.548 182.196L165.653 179.324L163.786 178.606ZM157.926 172.745L156.121 171.882L155.511 173.159L156.511 174.16L157.926 172.745ZM171.269 156.681L169.282 156.448L169.279 156.479L169.276 156.51L171.269 156.681ZM167.501 150.925L168.915 149.511L167.501 148.097L166.087 149.511L167.501 150.925ZM151.804 166.623L150.389 168.037L151.804 169.452L153.218 168.037L151.804 166.623ZM146.048 160.867L144.633 159.453L143.219 160.867L144.633 162.282L146.048 160.867ZM178.28 149.46V147.46H178.25L178.22 147.461L178.28 149.46ZM187.123 140.931L185.141 140.667L185.136 140.703L185.133 140.739L187.123 140.931ZM183.199 135.228L184.613 133.813L183.199 132.399L181.785 133.813L183.199 135.228ZM172.734 145.693L171.32 144.279L169.905 145.693L171.32 147.107L172.734 145.693ZM181.262 125.653L189.791 134.183L192.619 131.354L184.09 122.825L181.262 125.653ZM189.791 134.183C192.571 136.963 193.626 139.333 193.6 141.324L197.6 141.375C197.645 137.855 195.769 134.504 192.619 131.354L189.791 134.183ZM193.6 141.35C193.6 143.33 192.562 145.641 189.895 148.308L192.724 151.136C195.778 148.082 197.6 144.812 197.6 141.35L193.6 141.35ZM189.895 148.308L187.645 150.558L190.474 153.386L192.724 151.136L189.895 148.308ZM187.645 150.558C185.886 152.317 184.287 153.331 182.861 153.779C181.483 154.212 180.177 154.148 178.855 153.585L177.288 157.266C179.489 158.203 181.776 158.313 184.06 157.595C186.297 156.892 188.431 155.429 190.474 153.386L187.645 150.558ZM176.657 154.011L176.552 154.116L179.381 156.944L179.485 156.84L176.657 154.011ZM176.206 156.478C176.914 157.794 176.98 159.01 176.473 160.288L180.192 161.761C181.151 159.341 180.972 156.894 179.727 154.582L176.206 156.478ZM176.457 160.33C175.898 161.839 174.683 163.625 172.628 165.68L175.456 168.508C177.726 166.238 179.372 163.977 180.208 161.719L176.457 160.33ZM172.628 165.68L166.192 172.116L169.02 174.944L175.456 168.508L172.628 165.68ZM166.192 172.116C165.12 173.188 164.247 174.132 163.592 174.94L166.701 177.457C167.233 176.801 167.999 175.966 169.02 174.944L166.192 172.116ZM163.585 174.949C162.888 175.821 162.336 176.806 161.919 177.888L165.653 179.324C165.934 178.592 166.289 177.972 166.708 177.448L163.585 174.949ZM165.2 177.192L159.34 171.331L156.511 174.16L162.372 180.02L165.2 177.192ZM159.73 173.608C160.065 172.908 160.415 172.332 160.77 171.867L157.593 169.437C157.041 170.158 156.554 170.979 156.121 171.882L159.73 173.608ZM160.77 171.867C161.133 171.393 161.951 170.502 163.317 169.136L160.488 166.308C159.133 167.663 158.137 168.726 157.593 169.437L160.77 171.867ZM163.317 169.136L170.014 162.439L167.186 159.61L160.488 166.308L163.317 169.136ZM170.014 162.439C171.754 160.699 173.093 158.817 173.261 156.852L169.276 156.51C169.235 156.987 168.795 158.001 167.186 159.61L170.014 162.439ZM173.255 156.915C173.499 154.841 172.414 153.009 170.904 151.5L168.075 154.328C169.217 155.469 169.318 156.149 169.282 156.448L173.255 156.915ZM170.904 151.5L168.915 149.511L166.087 152.34L168.075 154.328L170.904 151.5ZM166.087 149.511L150.389 165.209L153.218 168.037L168.915 152.34L166.087 149.511ZM153.218 165.209L147.462 159.453L144.633 162.282L150.389 168.037L153.218 165.209ZM147.462 162.282L184.09 125.653L181.262 122.825L144.633 159.453L147.462 162.282ZM173.413 149.2C174.789 150.577 176.443 151.517 178.341 151.459L178.22 147.461C177.816 147.473 177.167 147.298 176.241 146.372L173.413 149.2ZM178.28 151.46C180.256 151.46 182.032 150.316 183.567 148.781L180.738 145.953C179.482 147.209 178.677 147.46 178.28 147.46V151.46ZM183.567 148.781L186.392 145.956L183.564 143.127L180.738 145.953L183.567 148.781ZM186.392 145.956C187.83 144.518 188.942 142.899 189.114 141.124L185.133 140.739C185.095 141.126 184.777 141.914 183.564 143.127L186.392 145.956ZM189.106 141.196C189.355 139.329 188.514 137.714 187.23 136.43L184.401 139.258C185.14 139.997 185.171 140.44 185.141 140.667L189.106 141.196ZM187.23 136.43L184.613 133.813L181.785 136.642L184.401 139.258L187.23 136.43ZM181.785 133.813L171.32 144.279L174.148 147.107L184.613 136.642L181.785 133.813ZM171.32 147.107L173.413 149.2L176.241 146.372L174.148 144.279L171.32 147.107Z" fill="#F7B32B" fill-opacity="0.8"/>
<mask id="mask0_238_1276" style="mask-type:alpha" maskUnits="userSpaceOnUse" x="0" y="58" width="141" height="141">
<rect x="23.2837" y="58" width="165.931" height="32.9279" transform="rotate(45 23.2837 58)" fill="#D9D9D9"/>
</mask>
<g mask="url(#mask0_238_1276)">
<path d="M-51.6696 62.2426H38.84M5.60602 119.518L96.1157 119.518M113.793 227.706L204.303 227.706M-45.3057 68.6066L45.204 68.6066M62.8817 176.794L153.391 176.794M11.97 125.882L102.48 125.882M-38.9417 74.9705L51.568 74.9705M69.2456 183.158L159.755 183.158M18.3339 132.246L108.844 132.246M126.521 240.434L217.031 240.434M-32.5777 81.3345L57.9319 81.3345M75.6096 189.522L166.119 189.522M24.6979 138.61L115.208 138.61M132.885 246.797L223.395 246.797M-26.2138 87.6985L64.2959 87.6985M81.9736 195.886L172.483 195.886M31.0619 144.974L121.572 144.974M139.249 253.161L229.759 253.161M-19.8498 94.0624L70.6598 94.0624M88.3375 202.25L178.847 202.25M37.4258 151.338L127.935 151.338M145.613 259.525L236.123 259.525M-13.4859 100.426L77.0238 100.426M94.7015 208.614L185.211 208.614M43.7898 157.702L134.299 157.702M151.977 265.889L242.487 265.889M-7.1219 106.79L83.3878 106.79M101.065 214.978L191.575 214.978M50.1537 164.066L140.663 164.066M158.341 272.253L248.851 272.253M-0.757938 113.154L89.7517 113.154M107.429 221.342L197.939 221.342M56.5177 170.43L147.027 170.43M164.705 278.617L255.215 278.617M120.157 234.07L210.667 234.07" stroke="#FF1053" stroke-opacity="0.9" stroke-width="2"/>
</g>
<path d="M30.9497 132C35.1686 136.219 29.2928 140.243 33.3059 144.256C36.8044 147.754 41.0339 142.084 45.1499 146.2C49.2659 150.316 42.9784 153.928 46.7857 157.736C51.1075 162.057 53.5877 154.638 58.5269 159.577C62.7458 163.796 56.8699 167.82 60.883 171.833C64.3816 175.331 68.6111 169.661 72.727 173.777C76.843 177.893 70.5556 181.505 74.3629 185.313C78.6847 189.634 81.1648 182.215 86.104 187.154C90.3229 191.373 84.4471 195.397 88.4602 199.41C91.9588 202.909 96.1882 197.239 100.304 201.355C104.42 205.471 98.1328 209.083 101.94 212.89C106.262 217.212 108.742 209.792 113.681 214.731C117.9 218.95 112.024 222.974 116.037 226.987C119.536 230.486 123.765 224.816 127.881 228.932C131.997 233.048 125.71 236.66 129.517 240.467C133.839 244.789 136.319 237.369 141.258 242.309" stroke="#31AFD4" stroke-opacity="1" stroke-width="2"/>
</svg>
