<svg width="260" height="238" viewBox="0 0 260 238" fill="none" xmlns="http://www.w3.org/2000/svg">
<path d="M34.8934 183.258L33.4792 181.844L32.065 183.258L33.4792 184.672L34.8934 183.258ZM52.4226 170.334L52.352 172.332L52.4226 170.334ZM71.5215 219.886L70.1073 221.3L71.5215 222.715L72.9357 221.3L71.5215 219.886ZM76.2832 202.985L74.2842 203.049L74.2853 203.084L74.2876 203.118L76.2832 202.985ZM51.7946 178.496L51.6616 180.492L51.6959 180.494L51.7302 180.495L51.7946 178.496ZM45.8818 182.735L44.4676 181.321L43.0534 182.735L44.4676 184.149L45.8818 182.735ZM72.0448 208.898L70.6306 210.312L72.0448 211.726L73.459 210.312L72.0448 208.898ZM36.3076 184.672L45.0983 175.882L42.2699 173.053L33.4792 181.844L36.3076 184.672ZM45.0983 175.882C47.7142 173.266 50.1206 172.254 52.352 172.332L52.4931 168.335C48.7943 168.204 45.375 169.948 42.2699 173.053L45.0983 175.882ZM52.352 172.332C54.6352 172.413 57.1484 173.597 59.9038 176.352L62.7322 173.524C59.5572 170.349 56.1402 168.464 52.4931 168.335L52.352 172.332ZM59.9038 176.352L78.4271 194.876L81.2555 192.047L62.7322 173.524L59.9038 176.352ZM78.4271 194.876C81.1824 197.631 82.3667 200.144 82.4473 202.428L86.4448 202.286C86.3161 198.639 84.4305 195.222 81.2555 192.047L78.4271 194.876ZM82.4473 202.428C82.526 204.659 81.514 207.065 78.8981 209.681L81.7265 212.51C84.8316 209.405 86.5753 205.985 86.4448 202.286L82.4473 202.428ZM78.8981 209.681L70.1073 218.472L72.9357 221.3L81.7265 212.51L78.8981 209.681ZM72.9357 218.472L36.3076 181.844L33.4792 184.672L70.1073 221.3L72.9357 218.472ZM76.3892 207.382C77.6207 206.15 78.3968 204.622 78.2787 202.852L74.2876 203.118C74.3091 203.441 74.2131 203.901 73.5608 204.553L76.3892 207.382ZM78.2821 202.92C78.2231 201.09 77.1591 199.463 75.7613 198.065L72.9329 200.893C74.0467 202.007 74.2735 202.717 74.2842 203.049L78.2821 202.92ZM75.7613 198.065L56.7147 179.018L53.8863 181.847L72.9329 200.893L75.7613 198.065ZM56.7147 179.018C55.3169 177.62 53.6892 176.556 51.8591 176.497L51.7302 180.495C52.0629 180.506 52.7724 180.733 53.8863 181.847L56.7147 179.018ZM51.9277 176.501C50.1576 176.383 48.6293 177.159 47.3979 178.39L50.2263 181.219C50.8786 180.566 51.3386 180.47 51.6616 180.492L51.9277 176.501ZM47.3979 178.39L44.4676 181.321L47.296 184.149L50.2263 181.219L47.3979 178.39ZM44.4676 184.149L70.6306 210.312L73.459 207.484L47.296 181.321L44.4676 184.149ZM73.459 210.312L76.3892 207.382L73.5608 204.553L70.6306 207.484L73.459 210.312ZM92.7266 194.914L92.794 192.915L92.794 192.915L92.7266 194.914ZM59.8659 162.053L61.8648 161.986L59.8659 162.053ZM72.8427 149.076L72.7754 151.075L72.8427 149.076ZM105.703 181.937L103.705 182.004L103.705 182.004L105.703 181.937ZM100.208 189.418C97.6552 191.971 95.1973 192.996 92.794 192.915L92.6592 196.913C96.4653 197.041 99.9376 195.345 103.036 192.246L100.208 189.418ZM92.794 192.915C90.3461 192.832 87.7825 191.641 85.0884 188.947L82.26 191.776C85.4264 194.942 88.8977 196.786 92.6592 196.913L92.794 192.915ZM85.0884 188.947L65.8325 169.691L63.0041 172.52L82.26 191.776L85.0884 188.947ZM65.8325 169.691C63.1384 166.997 61.9473 164.433 61.8648 161.986L57.8671 162.12C57.9938 165.882 59.8377 169.353 63.0041 172.52L65.8325 169.691ZM61.8648 161.986C61.7838 159.582 62.809 157.124 65.3615 154.572L62.5331 151.743C59.4345 154.842 57.7388 158.314 57.8671 162.12L61.8648 161.986ZM65.3615 154.572C67.9141 152.019 70.3721 150.994 72.7754 151.075L72.9101 147.077C69.1041 146.949 65.6318 148.645 62.5331 151.743L65.3615 154.572ZM72.7754 151.075C75.2232 151.158 77.7868 152.349 80.4809 155.043L83.3093 152.214C80.143 149.048 76.6716 147.204 72.9101 147.077L72.7754 151.075ZM80.4809 155.043L99.7368 174.299L102.565 171.47L83.3093 152.214L80.4809 155.043ZM99.7368 174.299C102.431 176.993 103.622 179.556 103.705 182.004L107.702 181.869C107.575 178.108 105.732 174.637 102.565 171.47L99.7368 174.299ZM103.705 182.004C103.786 184.407 102.76 186.865 100.208 189.418L103.036 192.246C106.135 189.148 107.831 185.675 107.702 181.869L103.705 182.004ZM97.8036 187.014C99.0945 185.723 99.8908 184.119 99.7147 182.27C99.5476 180.516 98.5385 178.955 97.1757 177.592L94.3473 180.421C95.3915 181.465 95.6905 182.206 95.7327 182.65C95.7659 182.999 95.6727 183.488 94.9752 184.185L97.8036 187.014ZM97.1757 177.592L77.1872 157.604L74.3588 160.432L94.3473 180.421L97.1757 177.592ZM77.1872 157.604C75.8244 156.241 74.2635 155.232 72.5091 155.065C70.6602 154.889 69.0566 155.685 67.7657 156.976L70.5941 159.804C71.2916 159.107 71.781 159.014 72.1299 159.047C72.5732 159.089 73.3145 159.388 74.3588 160.432L77.1872 157.604ZM67.7657 156.976C66.4748 158.267 65.6785 159.87 65.8546 161.719C66.0217 163.474 67.0309 165.035 68.3936 166.397L71.2221 163.569C70.1778 162.525 69.8788 161.783 69.8366 161.34C69.8034 160.991 69.8967 160.502 70.5941 159.804L67.7657 156.976ZM68.3936 166.397L88.3821 186.386L91.2106 183.558L71.2221 163.569L68.3936 166.397ZM88.3821 186.386C89.7449 187.749 91.3059 188.758 93.0602 188.925C94.9091 189.101 96.5127 188.305 97.8036 187.014L94.9752 184.185C94.2777 184.883 93.7883 184.976 93.4395 184.943C92.9962 184.901 92.2548 184.602 91.2106 183.558L88.3821 186.386ZM113.677 174.067L113.584 176.065L113.596 176.066L113.608 176.066L113.677 174.067ZM80.7121 141.102L78.7133 141.171L78.7137 141.183L78.7142 141.195L80.7121 141.102ZM93.3226 128.492L93.2297 130.489L93.2417 130.49L93.2537 130.49L93.3226 128.492ZM106.038 136.811L107.452 138.226L108.866 136.811L107.452 135.397L106.038 136.811ZM100.596 142.253L99.1817 143.668L100.596 145.082L102.01 143.668L100.596 142.253ZM111.218 152.875L109.804 151.461L108.39 152.876L109.804 154.29L111.218 152.875ZM116.66 147.434L118.074 146.019L116.66 144.605L115.246 146.019L116.66 147.434ZM126.288 161.457L124.289 161.526L124.29 161.538L124.29 161.55L126.288 161.457ZM120.949 168.677C118.468 171.158 116.08 172.149 113.746 172.069L113.608 176.066C117.344 176.195 120.747 174.535 123.778 171.505L120.949 168.677ZM113.77 172.07C111.419 171.96 108.933 170.785 106.301 168.153L103.472 170.982C106.561 174.07 109.935 175.896 113.584 176.065L113.77 172.07ZM106.301 168.153L86.6263 148.479L83.7979 151.307L103.472 170.982L106.301 168.153ZM86.6263 148.479C83.9941 145.846 82.8193 143.36 82.7099 141.009L78.7142 141.195C78.8839 144.844 80.7092 148.218 83.7979 151.307L86.6263 148.479ZM82.7109 141.033C82.6304 138.699 83.6216 136.312 86.103 133.83L83.2746 131.002C80.2444 134.032 78.5844 137.435 78.7133 141.171L82.7109 141.033ZM86.103 133.83C88.5864 131.347 90.9474 130.383 93.2297 130.489L93.4155 126.494C89.6978 126.321 86.3029 127.974 83.2746 131.002L86.103 133.83ZM93.2537 130.49C95.6332 130.572 98.1275 131.73 100.751 134.354L103.58 131.525C100.483 128.428 97.0818 126.62 93.3915 126.493L93.2537 130.49ZM100.751 134.354L104.624 138.226L107.452 135.397L103.58 131.525L100.751 134.354ZM104.624 135.397L99.1817 140.839L102.01 143.668L107.452 138.226L104.624 135.397ZM102.01 140.839L97.7717 136.601L94.9433 139.429L99.1817 143.668L102.01 140.839ZM97.7717 136.601C96.4723 135.301 94.9642 134.333 93.2532 134.19C91.4587 134.041 89.9091 134.833 88.6642 136.077L91.4926 138.906C92.1663 138.232 92.6225 138.152 92.9211 138.177C93.3031 138.208 93.9752 138.461 94.9433 139.429L97.7717 136.601ZM88.6642 136.077C87.4192 137.322 86.6276 138.872 86.7772 140.667C86.9197 142.378 87.8881 143.886 89.1874 145.185L92.0159 142.357C91.0478 141.389 90.7952 140.716 90.7633 140.334C90.7385 140.036 90.8189 139.58 91.4926 138.906L88.6642 136.077ZM89.1874 145.185L109.647 165.644L112.475 162.816L92.0159 142.357L89.1874 145.185ZM109.647 165.644C110.933 166.931 112.433 167.888 114.141 168.017C115.926 168.152 117.464 167.353 118.702 166.115L115.874 163.287C115.193 163.968 114.734 164.05 114.443 164.028C114.075 164 113.422 163.762 112.475 162.816L109.647 165.644ZM118.702 166.115C119.94 164.877 120.738 163.339 120.603 161.555C120.474 159.847 119.517 158.346 118.231 157.06L115.403 159.889C116.349 160.835 116.587 161.489 116.615 161.856C116.637 162.148 116.554 162.606 115.874 163.287L118.702 166.115ZM118.231 157.06L112.632 151.461L109.804 154.29L115.403 159.889L118.231 157.06ZM112.632 154.29L118.074 148.848L115.246 146.019L109.804 151.461L112.632 154.29ZM115.246 148.848L120.426 154.028L123.254 151.2L118.074 146.019L115.246 148.848ZM120.426 154.028C123.05 156.652 124.207 159.146 124.289 161.526L128.287 161.388C128.159 157.698 126.351 154.297 123.254 151.2L120.426 154.028ZM124.29 161.55C124.396 163.832 123.433 166.193 120.949 168.677L123.778 171.505C126.806 168.477 128.459 165.082 128.286 161.364L124.29 161.55ZM97.1326 121.019L95.7184 119.605L94.3042 121.019L95.7184 122.433L97.1326 121.019ZM102.888 115.263L104.303 113.849L102.888 112.435L101.474 113.849L102.888 115.263ZM118.325 130.699L116.91 132.113L120.209 130.028L118.325 130.699ZM110.214 107.937L108.8 106.523L107.906 107.417L108.33 108.609L110.214 107.937ZM115.97 102.182L117.872 101.564L116.864 98.4591L114.556 100.767L115.97 102.182ZM122.563 122.484L120.661 123.102L120.909 123.865L121.615 124.245L122.563 122.484ZM152.703 138.705L154.117 140.119L156.018 138.218L153.651 136.944L152.703 138.705ZM146.685 144.722L145.734 146.482L147.045 147.191L148.099 146.137L146.685 144.722ZM125.493 133.263L126.445 131.504L121.967 129.083L123.599 133.904L125.493 133.263ZM127.848 140.222L125.953 140.863L126.103 141.306L126.434 141.637L127.848 140.222ZM139.517 151.891L140.931 153.305L142.345 151.891L140.931 150.477L139.517 151.891ZM133.761 157.647L132.347 159.061L133.761 160.475L135.175 159.061L133.761 157.647ZM98.5468 122.433L104.303 116.677L101.474 113.849L95.7184 119.605L98.5468 122.433ZM101.474 116.677L116.91 132.113L119.739 129.285L104.303 113.849L101.474 116.677ZM120.209 130.028L112.098 107.266L108.33 108.609L116.441 131.37L120.209 130.028ZM111.628 109.352L117.384 103.596L114.556 100.767L108.8 106.523L111.628 109.352ZM114.068 102.799L120.661 123.102L124.465 121.866L117.872 101.564L114.068 102.799ZM121.615 124.245L151.755 140.466L153.651 136.944L123.511 120.723L121.615 124.245ZM151.288 137.291L145.271 143.308L148.099 146.137L154.117 140.119L151.288 137.291ZM147.637 142.963L126.445 131.504L124.542 135.022L145.734 146.482L147.637 142.963ZM123.599 133.904L125.953 140.863L129.742 139.581L127.388 132.622L123.599 133.904ZM126.434 141.637L138.102 153.305L140.931 150.477L129.262 138.808L126.434 141.637ZM138.102 150.477L132.347 156.233L135.175 159.061L140.931 153.305L138.102 150.477ZM135.175 156.233L98.5468 119.605L95.7184 122.433L132.347 159.061L135.175 156.233ZM118.799 99.3526L117.385 97.9384L115.97 99.3526L117.385 100.767L118.799 99.3526ZM134.497 83.6549L135.911 82.2406L134.497 80.8264L133.082 82.2406L134.497 83.6549ZM139.729 88.8874L141.143 90.3017L142.558 88.8874L141.143 87.4732L139.729 88.8874ZM129.787 98.8294L128.373 97.4152L126.959 98.8294L128.373 100.244L129.787 98.8294ZM139.467 108.51L138.053 109.924L139.468 111.338L140.882 109.924L139.467 108.51ZM147.369 100.608L148.783 99.1942L147.369 97.78L145.955 99.1942L147.369 100.608ZM152.601 105.841L154.016 107.255L155.43 105.841L154.016 104.427L152.601 105.841ZM144.7 113.742L143.286 112.328L141.872 113.742L143.286 115.156L144.7 113.742ZM155.95 124.992L154.536 126.407L155.95 127.821L157.364 126.407L155.95 124.992ZM165.892 115.05L167.306 113.636L165.892 112.222L164.478 113.636L165.892 115.05ZM171.125 120.283L172.539 121.697L173.953 120.283L172.539 118.869L171.125 120.283ZM155.427 135.981L154.013 137.395L155.427 138.809L156.841 137.395L155.427 135.981ZM120.213 100.767L135.911 85.0691L133.082 82.2406L117.385 97.9384L120.213 100.767ZM133.082 85.0691L138.315 90.3017L141.143 87.4732L135.911 82.2406L133.082 85.0691ZM138.315 87.4732L128.373 97.4152L131.201 100.244L141.143 90.3017L138.315 87.4732ZM128.373 100.244L138.053 109.924L140.882 107.095L131.201 97.4152L128.373 100.244ZM140.882 109.924L148.783 102.023L145.955 99.1942L138.053 107.095L140.882 109.924ZM145.955 102.023L151.187 107.255L154.016 104.427L148.783 99.1942L145.955 102.023ZM151.187 104.427L143.286 112.328L146.114 115.156L154.016 107.255L151.187 104.427ZM143.286 115.156L154.536 126.407L157.364 123.578L146.114 112.328L143.286 115.156ZM157.364 126.407L167.306 116.465L164.478 113.636L154.536 123.578L157.364 126.407ZM164.478 116.465L169.71 121.697L172.539 118.869L167.306 113.636L164.478 116.465ZM169.71 118.869L154.013 134.567L156.841 137.395L172.539 121.697L169.71 118.869ZM156.841 134.567L120.213 97.9384L117.385 100.767L154.013 137.395L156.841 134.567ZM137.808 80.3436L136.394 78.9294L134.979 80.3436L136.394 81.7578L137.808 80.3436ZM154.918 67.4191L154.893 69.419L154.906 69.4191L154.918 69.4191L154.918 67.4191ZM168.994 84.9483L167.154 84.1649L166.625 85.4075L167.58 86.3625L168.994 84.9483ZM169.099 85.0529L167.684 86.4672L168.737 87.5194L170.047 86.8139L169.099 85.0529ZM174.593 84.6867L173.856 86.546L173.877 86.5543L173.898 86.5622L174.593 84.6867ZM189.767 97.8728L188.509 99.4273L188.518 99.4345L189.767 97.8728ZM192.174 99.2333L193.589 100.647L195.765 98.4713L192.892 97.3666L192.174 99.2333ZM186.314 105.094L185.451 106.898L186.728 107.509L187.728 106.508L186.314 105.094ZM170.25 91.7507L170.016 93.737L170.048 93.7407L170.079 93.7434L170.25 91.7507ZM164.494 95.5181L163.08 94.1039L161.666 95.5181L163.08 96.9323L164.494 95.5181ZM180.192 111.216L181.606 112.63L183.02 111.216L181.606 109.802L180.192 111.216ZM174.436 116.972L173.022 118.386L174.436 119.8L175.85 118.386L174.436 116.972ZM163.029 84.739L161.029 84.739L161.029 84.7693L161.03 84.7996L163.029 84.739ZM154.5 75.8959L154.235 77.8784L154.271 77.8831L154.307 77.8866L154.5 75.8959ZM148.796 79.8204L147.382 78.4061L145.968 79.8204L147.382 81.2346L148.796 79.8204ZM159.261 90.2855L157.847 91.6998L159.261 93.114L160.676 91.6998L159.261 90.2855ZM139.222 81.7578L147.751 73.2287L144.923 70.4003L136.394 78.9294L139.222 81.7578ZM147.751 73.2287C150.531 70.4487 152.902 69.3937 154.893 69.419L154.944 65.4193C151.423 65.3747 148.073 67.25 144.923 70.4003L147.751 73.2287ZM154.918 69.4191C156.898 69.4191 159.21 70.4576 161.876 73.124L164.705 70.2956C161.65 67.2411 158.38 65.4191 154.918 65.4191L154.918 69.4191ZM161.876 73.124L164.126 75.3741L166.955 72.5456L164.705 70.2956L161.876 73.124ZM164.126 75.3741C165.886 77.1334 166.9 78.7324 167.348 80.1584C167.781 81.5367 167.717 82.8427 167.154 84.1649L170.834 85.7317C171.771 83.5306 171.882 81.2435 171.164 78.9591C170.461 76.7222 168.998 74.5886 166.955 72.5456L164.126 75.3741ZM167.58 86.3625L167.684 86.4672L170.513 83.6387L170.408 83.5341L167.58 86.3625ZM170.047 86.8139C171.363 86.1054 172.578 86.0397 173.856 86.546L175.33 82.8273C172.91 81.8685 170.463 82.047 168.15 83.292L170.047 86.8139ZM173.898 86.5622C175.408 87.1212 177.193 88.3362 179.248 90.3916L182.077 87.5632C179.807 85.293 177.545 83.6474 175.288 82.8112L173.898 86.5622ZM179.248 90.3916L185.685 96.8277L188.513 93.9993L182.077 87.5632L179.248 90.3916ZM185.685 96.8277C186.756 97.8992 187.701 98.7729 188.509 99.4273L191.026 96.3183C190.369 95.7867 189.534 95.0208 188.513 93.9993L185.685 96.8277ZM188.518 99.4345C189.39 100.132 190.374 100.684 191.456 101.1L192.892 97.3666C192.16 97.085 191.541 96.7301 191.017 96.311L188.518 99.4345ZM190.76 97.819L184.9 103.68L187.728 106.508L193.589 100.647L190.76 97.819ZM187.177 103.289C186.476 102.954 185.901 102.605 185.436 102.249L183.006 105.427C183.727 105.978 184.547 106.466 185.451 106.898L187.177 103.289ZM185.436 102.249C184.961 101.886 184.07 101.068 182.705 99.7028L179.876 102.531C181.232 103.887 182.294 104.882 183.006 105.427L185.436 102.249ZM182.705 99.7028L176.007 93.0051L173.179 95.8335L179.876 102.531L182.705 99.7028ZM176.007 93.0051C174.267 91.2653 172.386 89.9264 170.421 89.758L170.079 93.7434C170.556 93.7842 171.57 94.2244 173.179 95.8335L176.007 93.0051ZM170.484 89.7644C168.41 89.5204 166.578 90.6057 165.068 92.1155L167.897 94.9439C169.038 93.8026 169.718 93.7018 170.016 93.737L170.484 89.7644ZM165.068 92.1155L163.08 94.1039L165.908 96.9323L167.897 94.9439L165.068 92.1155ZM163.08 96.9323L178.778 112.63L181.606 109.802L165.908 94.1039L163.08 96.9323ZM178.778 109.802L173.022 115.558L175.85 118.386L181.606 112.63L178.778 109.802ZM175.85 115.558L139.222 78.9294L136.394 81.7578L173.022 118.386L175.85 115.558ZM162.769 89.6067C164.145 88.2302 165.085 86.5768 165.028 84.6784L161.03 84.7996C161.042 85.2035 160.866 85.8524 159.94 86.7783L162.769 89.6067ZM165.029 84.739C165.029 82.763 163.885 80.9875 162.35 79.4527L159.522 82.2811C160.777 83.537 161.029 84.3429 161.029 84.739L165.029 84.739ZM162.35 79.4527L159.524 76.6271L156.696 79.4555L159.522 82.2811L162.35 79.4527ZM159.524 76.6271C158.087 75.1892 156.468 74.077 154.692 73.9052L154.307 77.8866C154.694 77.9241 155.483 78.2422 156.696 79.4555L159.524 76.6271ZM154.764 73.9135C152.898 73.6646 151.282 74.5058 149.998 75.7899L152.827 78.6183C153.566 77.8791 154.009 77.8482 154.235 77.8784L154.764 73.9135ZM149.998 75.7899L147.382 78.4061L150.21 81.2346L152.827 78.6183L149.998 75.7899ZM147.382 81.2346L157.847 91.6998L160.676 88.8713L150.21 78.4061L147.382 81.2346ZM160.676 91.6998L162.769 89.6067L159.94 86.7783L157.847 88.8713L160.676 91.6998ZM204.13 83.6152L204.039 85.6131L204.05 85.6136L204.061 85.614L204.13 83.6152ZM192.199 76.0803L190.785 74.6661L189.371 76.0803L190.785 77.4945L192.199 76.0803ZM197.641 70.6384L199.055 69.2242L197.641 67.81L196.227 69.2242L197.641 70.6384ZM193.037 66.0337L194.451 67.4479L195.865 66.0337L194.451 64.6195L193.037 66.0337ZM187.595 71.4756L186.11 72.8157L187.52 74.3782L189.009 72.8898L187.595 71.4756ZM168.182 49.9696L166.768 48.5554L165.424 49.8992L166.697 51.3098L168.182 49.9696ZM183.356 34.7951L184.77 33.3809L183.356 31.9667L181.942 33.3809L183.356 34.7951ZM188.589 40.0277L190.003 41.4419L191.417 40.0277L190.003 38.6135L188.589 40.0277ZM178.542 50.0743L177.128 48.6601L175.788 50.0001L177.054 51.4104L178.542 50.0743ZM186.81 59.2837L185.321 60.6197L186.731 62.1903L188.224 60.6979L186.81 59.2837ZM186.914 59.179L188.329 60.5932L189.124 59.7979L188.857 58.7051L186.914 59.179ZM196.124 48.9231L195.849 50.9041L195.849 50.9041L196.124 48.9231ZM216.897 70.8477L218.896 70.7788L218.896 70.7678L218.895 70.7569L216.897 70.8477ZM211.454 78.1719C208.931 80.6944 206.526 81.6966 204.199 81.6164L204.061 85.614C207.803 85.7431 211.223 84.0592 214.282 81.0003L211.454 78.1719ZM204.22 81.6173C201.807 81.5075 199.234 80.2863 196.491 77.544L193.663 80.3724C196.851 83.5604 200.313 85.4438 204.039 85.6131L204.22 81.6173ZM196.491 77.544L193.614 74.6661L190.785 77.4945L193.663 80.3724L196.491 77.544ZM193.614 77.4945L199.055 72.0526L196.227 69.2242L190.785 74.6661L193.614 77.4945ZM196.227 72.0526L199.524 75.3491L202.352 72.5207L199.055 69.2242L196.227 72.0526ZM199.524 75.3491C200.873 76.6983 202.426 77.6961 204.177 77.8502C206.016 78.012 207.609 77.2088 208.893 75.9247L206.064 73.0963C205.36 73.8005 204.869 73.8956 204.527 73.8656C204.098 73.8278 203.375 73.5436 202.352 72.5207L199.524 75.3491ZM208.893 75.9247C210.177 74.6406 210.98 73.0477 210.818 71.2087C210.664 69.4576 209.666 67.9047 208.317 66.5555L205.489 69.384C206.512 70.4069 206.796 71.1302 206.834 71.5593C206.864 71.9006 206.769 72.392 206.064 73.0963L208.893 75.9247ZM208.317 66.5555L200.102 58.3404L197.274 61.1688L205.489 69.384L208.317 66.5555ZM200.102 58.3404C198.739 56.9776 197.178 55.9685 195.424 55.8014C193.575 55.6253 191.971 56.4215 190.68 57.7125L193.509 60.5409C194.206 59.8434 194.696 59.7501 195.045 59.7834C195.488 59.8256 196.229 60.1246 197.274 61.1688L200.102 58.3404ZM190.68 57.7125C189.39 59.0034 188.593 60.607 188.769 62.4558C188.936 64.2102 189.946 65.7712 191.308 67.134L194.137 64.3055C193.093 63.2613 192.794 62.5199 192.751 62.0766C192.718 61.7278 192.811 61.2384 193.509 60.5409L190.68 57.7125ZM191.308 67.134L191.622 67.4479L194.451 64.6195L194.137 64.3055L191.308 67.134ZM191.622 64.6195L186.18 70.0614L189.009 72.8898L194.451 67.4479L191.622 64.6195ZM189.079 70.1355L169.666 48.6295L166.697 51.3098L186.11 72.8157L189.079 70.1355ZM169.596 51.3839L184.77 36.2094L181.942 33.3809L166.768 48.5554L169.596 51.3839ZM181.942 36.2094L187.175 41.4419L190.003 38.6135L184.77 33.3809L181.942 36.2094ZM187.175 38.6135L177.128 48.6601L179.956 51.4885L190.003 41.4419L187.175 38.6135ZM177.054 51.4104L185.321 60.6197L188.298 57.9476L180.031 48.7382L177.054 51.4104ZM188.224 60.6979L188.329 60.5932L185.5 57.7648L185.396 57.8694L188.224 60.6979ZM188.857 58.7051C188.339 56.5805 188.849 54.7356 190.631 52.9536L187.803 50.1252C185.119 52.8084 184.094 56.0566 184.971 59.6529L188.857 58.7051ZM190.631 52.9536C192.365 51.2198 194.067 50.6566 195.849 50.9041L196.399 46.9421C193.158 46.492 190.255 47.6729 187.803 50.1252L190.631 52.9536ZM195.849 50.9041C197.757 51.1692 199.994 52.3781 202.558 54.942L205.387 52.1136C202.509 49.2357 199.514 47.3748 196.399 46.9421L195.849 50.9041ZM202.558 54.942L210.826 63.2095L213.654 60.3811L205.387 52.1136L202.558 54.942ZM210.826 63.2095C213.568 65.9518 214.79 68.5246 214.899 70.9385L218.895 70.7569C218.726 67.0311 216.842 63.5691 213.654 60.3811L210.826 63.2095ZM214.898 70.9166C214.979 73.2439 213.976 75.6494 211.454 78.1719L214.282 81.0003C217.341 77.9414 219.025 74.5213 218.896 70.7788L214.898 70.9166ZM215.348 54.7109L217.22 54.0059L217.215 53.9929L215.348 54.7109ZM213.621 43.9841L215.621 43.9368L215.62 43.9287L215.62 43.9206L213.621 43.9841ZM212.208 33.7805L210.3 34.3802L210.305 34.3966L210.311 34.413L212.208 33.7805ZM204.412 25.0421L204.164 27.0266L204.225 27.0343L204.287 27.0382L204.412 25.0421ZM205.825 36.8154L207.239 38.2296L208.653 36.8154L207.239 35.4012L205.825 36.8154ZM200.383 42.2573L198.968 43.6715L200.383 45.0857L201.797 43.6715L200.383 42.2573ZM192.22 29.6991L194.219 29.6302L194.218 29.6192L194.218 29.6083L192.22 29.6991ZM204.987 16.9316L204.896 18.9295L204.907 18.93L204.918 18.9304L204.987 16.9316ZM218.906 29.6991L217.005 30.3191L217.009 30.3316L217.013 30.344L218.906 29.6991ZM220.737 42.5189L218.738 42.5709L218.738 42.5783L220.737 42.5189ZM221.732 50.4201L223.644 49.8347L223.64 49.8226L223.636 49.8106L221.732 50.4201ZM225.237 55.7051L223.823 57.1193L225.237 58.5335L226.652 57.1193L225.237 55.7051ZM236.174 44.7689L237.588 43.3547L236.174 41.9405L234.759 43.3547L236.174 44.7689ZM241.406 50.0015L242.82 51.4157L244.235 50.0015L242.82 48.5873L241.406 50.0015ZM224.766 66.6412L223.352 68.0554L224.766 69.4696L226.181 68.0554L224.766 66.6412ZM222.204 61.2502C219.733 58.7792 218.106 56.3606 217.219 54.006L213.476 55.4158C214.613 58.4333 216.614 61.317 219.376 64.0786L222.204 61.2502ZM217.215 53.9929C216.282 51.5673 215.722 48.2444 215.621 43.9368L211.622 44.0313C211.729 48.5843 212.321 52.4125 213.481 55.4288L217.215 53.9929ZM215.62 43.9206C215.478 39.4512 214.998 35.8254 214.106 33.148L210.311 34.413C211.023 36.5495 211.485 39.7261 211.622 44.0475L215.62 43.9206ZM214.116 33.1809C213.256 30.4436 211.836 28.0679 209.855 26.0872L207.027 28.9156C208.534 30.4233 209.626 32.2336 210.3 34.3802L214.116 33.1809ZM209.855 26.0872C208.231 24.4634 206.433 23.1645 204.536 23.046L204.287 27.0382C204.623 27.0592 205.511 27.3998 207.027 28.9156L209.855 26.0872ZM204.66 23.0575C202.791 22.824 201.161 23.5808 199.858 24.8837L202.686 27.7121C203.337 27.0615 203.799 26.9811 204.164 27.0266L204.66 23.0575ZM199.858 24.8837C198.567 26.1746 197.771 27.7782 197.947 29.6271C198.114 31.3815 199.123 32.9424 200.486 34.3052L203.314 31.4768C202.27 30.4325 201.971 29.6911 201.929 29.2478C201.896 28.899 201.989 28.4096 202.686 27.7121L199.858 24.8837ZM200.486 34.3052L204.41 38.2296L207.239 35.4012L203.314 31.4768L200.486 34.3052ZM204.41 35.4012L198.968 40.8431L201.797 43.6715L207.239 38.2296L204.41 35.4012ZM201.797 40.8431L198.239 37.2849L195.41 40.1134L198.968 43.6715L201.797 40.8431ZM198.239 37.2849C195.494 34.5403 194.3 31.9929 194.219 29.6302L190.221 29.768C190.349 33.4751 192.225 36.9278 195.41 40.1134L198.239 37.2849ZM194.218 29.6083C194.11 27.2496 195.097 24.8359 197.611 22.3225L194.782 19.4941C191.714 22.5622 190.05 26.009 190.222 29.7899L194.218 29.6083ZM197.611 22.3225C200.124 19.8092 202.538 18.8223 204.896 18.9295L205.078 14.9336C201.297 14.7618 197.85 16.426 194.782 19.4941L197.611 22.3225ZM204.918 18.9304C207.281 19.0119 209.828 20.2058 212.573 22.9505L215.402 20.122C212.216 16.9364 208.763 15.0606 205.056 14.9327L204.918 18.9304ZM212.573 22.9505C214.568 24.9451 216.049 27.388 217.005 30.3191L220.807 29.079C219.67 25.5915 217.872 22.5925 215.402 20.122L212.573 22.9505ZM217.013 30.344C218.002 33.2477 218.601 37.2946 218.738 42.5709L222.737 42.467C222.595 36.999 221.973 32.4993 220.799 29.0542L217.013 30.344ZM218.738 42.5783C218.844 46.1497 219.181 49.0113 219.827 51.0297L223.636 49.8106C223.166 48.3406 222.84 45.9347 222.736 42.4595L218.738 42.5783ZM219.819 51.0056C220.44 53.0345 221.521 54.8174 223.038 56.3344L225.867 53.506C224.802 52.4415 224.069 51.2244 223.644 49.8347L219.819 51.0056ZM223.038 56.3344L223.823 57.1193L226.652 54.2908L225.867 53.506L223.038 56.3344ZM226.652 57.1193L237.588 46.1832L234.759 43.3547L223.823 54.2908L226.652 57.1193ZM234.759 46.1832L239.992 51.4157L242.82 48.5873L237.588 43.3547L234.759 46.1832ZM239.992 48.5873L223.352 65.227L226.181 68.0554L242.82 51.4157L239.992 48.5873ZM226.181 65.227L222.204 61.2502L219.376 64.0786L223.352 68.0554L226.181 65.227Z" fill="#31AFD4" fill-opacity="0.5"/>
<rect x="28.2839" y="120.414" width="38" height="38" transform="rotate(45 28.2839 120.414)" stroke="#FF1053" stroke-opacity="1" stroke-width="2"/>
<rect x="62.1421" y="119.95" width="13" height="13" transform="rotate(45 62.1421 119.95)" stroke="#FF1053" stroke-opacity="1" stroke-width="7"/>
<rect x="110.353" y="68.2031" width="18" height="60.7249" transform="rotate(45 110.353 68.2031)" stroke="#FF1053" stroke-opacity="1" stroke-width="2"/>
<rect x="68.3477" y="79.5015" width="14.8824" height="48.9892" transform="rotate(45 68.3477 79.5015)" stroke="#FF1053" stroke-opacity="1"/>
<rect x="68.5" y="85.2071" width="6.77813" height="40.7193" transform="rotate(45 68.5 85.2071)" stroke="#FF1053" stroke-opacity="1"/>
<rect x="67.1914" y="91.2737" width="0.408041" height="30.2893" transform="rotate(45 67.1914 91.2737)" stroke="#FF1053" stroke-opacity="1" stroke-width="0.408041"/>
</svg>
