<svg width="195" height="196" viewBox="0 0 195 196" fill="none" xmlns="http://www.w3.org/2000/svg">
<path d="M43.5583 176.859L43.4675 178.857L43.4784 178.858L43.4893 178.858L43.5583 176.859ZM14.6482 147.949L16.647 147.88L16.6466 147.869L16.6461 147.859L14.6482 147.949ZM25.8629 136.735L25.7721 138.733L25.783 138.733L25.794 138.733L25.8629 136.735ZM36.5261 143.537L37.9403 144.951L39.3545 143.537L37.9403 142.123L36.5261 143.537ZM31.746 148.317L30.3318 149.731L31.746 151.145L33.1603 149.731L31.746 148.317ZM39.9732 156.544L41.3874 155.13L39.9732 153.716L38.559 155.13L39.9732 156.544ZM37.4453 159.072L36.0311 160.486L37.4453 161.901L38.8595 160.486L37.4453 159.072ZM32.8491 154.476L31.4349 153.062L30.0207 154.476L31.4349 155.89L32.8491 154.476ZM40.1571 147.168L41.5713 145.754L40.1571 144.34L38.7429 145.754L40.1571 147.168ZM54.773 165.645L56.7718 165.576L56.7714 165.565L56.7709 165.554L54.773 165.645ZM49.8197 171.906C47.6366 174.089 45.5854 174.928 43.6272 174.861L43.4893 178.858C46.8628 178.975 49.9286 177.454 52.6481 174.735L49.8197 171.906ZM43.6491 174.861C41.6086 174.769 39.4027 173.736 37.0211 171.355L34.1926 174.183C37.02 177.01 40.1151 178.705 43.4675 178.857L43.6491 174.861ZM37.0211 171.355L20.1071 154.441L17.2786 157.269L34.1926 174.183L37.0211 171.355ZM20.1071 154.441C17.723 152.057 16.7158 149.874 16.647 147.88L12.6494 148.018C12.7645 151.356 14.4537 154.444 17.2786 157.269L20.1071 154.441ZM16.6461 147.859C16.5559 145.873 17.3816 143.816 19.5555 141.642L16.7271 138.814C13.9984 141.542 12.4954 144.633 12.6503 148.04L16.6461 147.859ZM19.5555 141.642C21.7294 139.468 23.7868 138.642 25.7721 138.733L25.9537 134.737C22.5462 134.582 19.4558 136.085 16.7271 138.814L19.5555 141.642ZM25.794 138.733C27.7876 138.802 29.9701 139.809 32.3542 142.193L35.1826 139.365C32.3576 136.54 29.2698 134.851 25.9318 134.736L25.794 138.733ZM32.3542 142.193L35.1119 144.951L37.9403 142.123L35.1826 139.365L32.3542 142.193ZM35.1119 142.123L30.3318 146.903L33.1603 149.731L37.9403 144.951L35.1119 142.123ZM33.1603 146.903L30.0808 143.823L27.2524 146.652L30.3318 149.731L33.1603 146.903ZM30.0808 143.823C28.8644 142.607 27.4435 141.677 25.8227 141.523C24.1075 141.36 22.6312 142.102 21.4612 143.272L24.2896 146.1C24.8662 145.524 25.2283 145.485 25.4435 145.505C25.7532 145.535 26.3545 145.754 27.2524 146.652L30.0808 143.823ZM21.4612 143.272C20.2912 144.442 19.549 145.918 19.7124 147.633C19.8667 149.254 20.7963 150.675 22.0127 151.891L24.8411 149.063C23.9433 148.165 23.7238 147.564 23.6944 147.254C23.6739 147.039 23.7131 146.677 24.2896 146.1L21.4612 143.272ZM22.0127 151.891L39.6161 169.495L42.4446 166.666L24.8411 149.063L22.0127 151.891ZM39.6161 169.495C40.8211 170.7 42.2355 171.62 43.8541 171.762C45.5605 171.912 47.0266 171.164 48.1898 170L45.3614 167.172C44.778 167.755 44.4134 167.796 44.2047 167.777C43.9082 167.751 43.3232 167.545 42.4446 166.666L39.6161 169.495ZM48.1898 170C49.353 168.837 50.1016 167.371 49.9514 165.665C49.809 164.046 48.8892 162.632 47.6842 161.427L44.8558 164.255C45.7345 165.134 45.9407 165.719 45.9668 166.015C45.9852 166.224 45.9447 166.589 45.3614 167.172L48.1898 170ZM47.6842 161.427L41.3874 155.13L38.559 157.958L44.8558 164.255L47.6842 161.427ZM38.559 155.13L36.0311 157.658L38.8595 160.486L41.3874 157.958L38.559 155.13ZM38.8595 157.658L34.2633 153.062L31.4349 155.89L36.0311 160.486L38.8595 157.658ZM34.2633 155.89L41.5713 148.582L38.7429 145.754L31.4349 153.062L34.2633 155.89ZM38.7429 148.582L49.2682 159.107L52.0966 156.279L41.5713 145.754L38.7429 148.582ZM49.2682 159.107C51.6498 161.489 52.6823 163.695 52.775 165.736L56.7709 165.554C56.6185 162.202 54.9239 159.106 52.0966 156.279L49.2682 159.107ZM52.7742 165.714C52.8417 167.672 52.0028 169.723 49.8197 171.906L52.6481 174.735C55.3676 172.015 56.8881 168.949 56.7718 165.576L52.7742 165.714ZM29.3848 129.904L27.9705 128.489L26.5563 129.904L27.9705 131.318L29.3848 129.904ZM44.4143 118.551L44.389 120.551L44.4016 120.551L44.4143 120.551L44.4143 118.551ZM56.7781 133.948L54.9379 133.165L54.4089 134.407L55.3639 135.362L56.7781 133.948ZM56.87 134.04L55.4558 135.454L56.508 136.507L57.8182 135.801L56.87 134.04ZM61.696 133.718L60.9593 135.578L60.9802 135.586L61.0014 135.594L61.696 133.718ZM75.025 145.301L73.7665 146.855L73.7756 146.863L75.025 145.301ZM77.1392 146.496L78.5534 147.91L80.7296 145.734L77.8572 144.629L77.1392 146.496ZM71.9915 151.644L71.1286 153.448L72.4051 154.058L73.4057 153.058L71.9915 151.644ZM57.8812 139.923L57.6475 141.91L57.6789 141.913L57.7104 141.916L57.8812 139.923ZM52.8253 143.233L51.4111 141.818L49.9969 143.233L51.4111 144.647L52.8253 143.233ZM66.6139 157.021L68.0281 158.435L69.4423 157.021L68.0281 155.607L66.6139 157.021ZM61.5581 162.077L60.1439 163.491L61.5581 164.905L62.9723 163.491L61.5581 162.077ZM51.5384 133.764L49.5384 133.764L49.5384 133.795L49.5393 133.825L51.5384 133.764ZM44.0466 125.997L43.7823 127.979L43.818 127.984L43.854 127.987L44.0466 125.997ZM39.0368 129.444L37.6225 128.03L36.2083 129.444L37.6225 130.858L39.0368 129.444ZM48.2291 138.636L46.8149 140.051L48.2291 141.465L49.6434 140.051L48.2291 138.636ZM30.799 131.318L38.2908 123.826L35.4623 120.998L27.9705 128.489L30.799 131.318ZM38.2908 123.826C40.7101 121.407 42.7329 120.53 44.389 120.551L44.4396 116.551C41.2543 116.511 38.252 118.208 35.4623 120.998L38.2908 123.826ZM44.4143 120.551C46.0634 120.551 48.0354 121.415 50.354 123.734L53.1824 120.906C50.4758 118.199 47.5452 116.551 44.4143 116.551L44.4143 120.551ZM50.354 123.734L52.3304 125.71L55.1588 122.882L53.1824 120.906L50.354 123.734ZM52.3304 125.71C53.8585 127.239 54.7217 128.611 55.0999 129.814C55.4631 130.969 55.4096 132.057 54.9379 133.165L58.6182 134.732C59.4642 132.745 59.5638 130.676 58.9159 128.614C58.2829 126.6 56.9706 124.694 55.1588 122.882L52.3304 125.71ZM55.3639 135.362L55.4558 135.454L58.2842 132.626L58.1923 132.534L55.3639 135.362ZM57.8182 135.801C58.9134 135.211 59.9062 135.161 60.9593 135.578L62.4327 131.859C60.2378 130.989 58.0133 131.153 55.9218 132.279L57.8182 135.801ZM61.0014 135.594C62.2818 136.068 63.821 137.109 65.6134 138.901L68.4418 136.073C66.4346 134.066 64.4194 132.594 62.3906 131.843L61.0014 135.594ZM65.6134 138.901L71.2667 144.555L74.0951 141.726L68.4418 136.073L65.6134 138.901ZM71.2667 144.555C72.211 145.499 73.0472 146.273 73.7666 146.855L76.2834 143.746C75.7157 143.287 74.9893 142.621 74.0951 141.726L71.2667 144.555ZM73.7756 146.863C74.5622 147.492 75.4496 147.989 76.4213 148.362L77.8572 144.629C77.2355 144.39 76.7133 144.09 76.2743 143.739L73.7756 146.863ZM75.725 145.082L70.5773 150.229L73.4057 153.058L78.5534 147.91L75.725 145.082ZM72.8544 149.839C72.2512 149.551 71.7608 149.252 71.3679 148.952L68.9381 152.129C69.587 152.625 70.3222 153.062 71.1286 153.448L72.8544 149.839ZM71.3679 148.952C70.9656 148.644 70.1933 147.936 68.9933 146.736L66.1649 149.565C67.355 150.755 68.2986 151.64 68.9381 152.129L71.3679 148.952ZM68.9933 146.736L63.1102 140.853L60.2818 143.682L66.1649 149.565L68.9933 146.736ZM63.1102 140.853C61.5741 139.317 59.8685 138.086 58.052 137.931L57.7104 141.916C58.0387 141.944 58.8763 142.276 60.2818 143.682L63.1102 140.853ZM58.1148 137.937C56.1855 137.71 54.5063 138.723 53.1577 140.072L55.9861 142.9C56.9663 141.92 57.4932 141.891 57.6475 141.91L58.1148 137.937ZM53.1577 140.072L51.4111 141.818L54.2396 144.647L55.9861 142.9L53.1577 140.072ZM51.4111 144.647L65.1997 158.435L68.0281 155.607L54.2396 141.818L51.4111 144.647ZM65.1997 155.607L60.1439 160.663L62.9723 163.491L68.0281 158.435L65.1997 155.607ZM62.9723 160.663L30.799 128.489L27.9705 131.318L60.1439 163.491L62.9723 160.663ZM51.4818 138.212C52.7183 136.976 53.5908 135.462 53.5375 133.704L49.5393 133.825C49.5473 134.089 49.4393 134.598 48.6534 135.384L51.4818 138.212ZM53.5384 133.764C53.5384 131.933 52.4793 130.314 51.1141 128.949L48.2857 131.777C49.3719 132.864 49.5384 133.512 49.5384 133.764H53.5384ZM51.1141 128.949L48.6322 126.467L45.8038 129.295L48.2857 131.777L51.1141 128.949ZM48.6322 126.467C47.3556 125.19 45.8833 124.165 44.2393 124.006L43.854 127.987C44.1096 128.012 44.7517 128.243 45.8038 129.295L48.6322 126.467ZM44.3109 124.014C42.5716 123.782 41.0817 124.571 39.9206 125.732L42.7491 128.56C43.3652 127.944 43.6831 127.966 43.7823 127.979L44.3109 124.014ZM39.9206 125.732L37.6225 128.03L40.451 130.858L42.7491 128.56L39.9206 125.732ZM37.6225 130.858L46.8149 140.051L49.6434 137.222L40.451 128.03L37.6225 130.858ZM49.6434 140.051L51.4818 138.212L48.6534 135.384L46.8149 137.222L49.6434 140.051ZM47.9221 111.366L46.5079 109.952L45.0937 111.366L46.5079 112.78L47.9221 111.366ZM63.0436 100.289L62.9731 102.288L62.9731 102.288L63.0436 100.289ZM78.0732 115.319L76.0744 115.389L78.0732 115.319ZM72.0522 125.385L70.6379 123.97L69.2237 125.385L70.6379 126.799L72.0522 125.385ZM85.1513 138.484L86.5655 139.898L87.9797 138.484L86.5655 137.069L85.1513 138.484ZM80.0955 143.54L78.6813 144.954L80.0955 146.368L81.5097 144.954L80.0955 143.54ZM70.995 115.87L68.9962 115.939L68.9975 115.976L69.0001 116.013L70.995 115.87ZM62.4921 107.367L62.3496 109.362L62.3863 109.365L62.4231 109.366L62.4921 107.367ZM57.5741 110.907L56.1599 109.492L54.7457 110.907L56.1599 112.321L57.5741 110.907ZM67.456 120.788L66.0417 122.203L67.456 123.617L68.8702 122.203L67.456 120.788ZM49.3363 112.78L56.7822 105.335L53.9538 102.506L46.5079 109.952L49.3363 112.78ZM56.7822 105.335C59.0502 103.067 61.1022 102.222 62.9731 102.288L63.1142 98.2906C59.776 98.1728 56.7109 99.7489 53.9538 102.506L56.7822 105.335ZM62.9731 102.288C64.8957 102.356 67.0482 103.353 69.4429 105.748L72.2714 102.92C69.457 100.105 66.4006 98.4066 63.1142 98.2906L62.9731 102.288ZM69.4429 105.748L72.6143 108.92L75.4427 106.091L72.2714 102.92L69.4429 105.748ZM72.6143 108.92C75.009 111.314 76.0066 113.467 76.0744 115.389L80.0719 115.248C79.9559 111.962 78.2571 108.905 75.4427 106.091L72.6143 108.92ZM76.0744 115.389C76.1404 117.26 75.296 119.312 73.028 121.58L75.8564 124.409C78.6136 121.652 80.1897 118.587 80.0719 115.248L76.0744 115.389ZM73.028 121.58L70.6379 123.97L73.4664 126.799L75.8564 124.409L73.028 121.58ZM70.6379 126.799L83.7371 139.898L86.5655 137.069L73.4664 123.97L70.6379 126.799ZM83.7371 137.069L78.6813 142.125L81.5097 144.954L86.5655 139.898L83.7371 137.069ZM81.5097 142.125L49.3363 109.952L46.5079 112.78L78.6813 144.954L81.5097 142.125ZM71.2602 119.813C72.3425 118.73 73.106 117.352 72.9899 115.728L69.0001 116.013C69.0067 116.105 69.004 116.412 68.4318 116.984L71.2602 119.813ZM72.9938 115.802C72.9366 114.141 71.9227 112.683 70.7087 111.469L67.8802 114.297C68.8724 115.289 68.9922 115.823 68.9962 115.939L72.9938 115.802ZM70.7087 111.469L66.8938 107.654L64.0654 110.482L67.8802 114.297L70.7087 111.469ZM66.8938 107.654C65.6798 106.44 64.2214 105.426 62.561 105.369L62.4231 109.366C62.5399 109.37 63.0732 109.49 64.0654 110.482L66.8938 107.654ZM62.6346 105.373C61.0102 105.257 59.6323 106.02 58.5499 107.102L61.3784 109.931C61.9507 109.358 62.258 109.356 62.3496 109.362L62.6346 105.373ZM58.5499 107.102L56.1599 109.492L58.9884 112.321L61.3784 109.931L58.5499 107.102ZM56.1599 112.321L66.0417 122.203L68.8702 119.374L58.9884 109.492L56.1599 112.321ZM68.8702 122.203L71.2602 119.813L68.4318 116.984L66.0417 119.374L68.8702 122.203ZM97.779 122.639L97.6861 124.637L97.6981 124.637L97.7101 124.637L97.779 122.639ZM68.823 93.6827L66.8242 93.7516L66.8246 93.7636L66.8251 93.7756L68.823 93.6827ZM79.8998 82.6058L79.8069 84.6037L79.8189 84.6042L79.8309 84.6046L79.8998 82.6058ZM91.0685 89.9138L92.4828 91.328L93.897 89.9138L92.4828 88.4996L91.0685 89.9138ZM86.2885 94.6938L84.8743 96.108L86.2885 97.5222L87.7027 96.108L86.2885 94.6938ZM95.6188 104.024L94.2046 102.61L92.7904 104.024L94.2046 105.438L95.6188 104.024ZM100.399 99.2441L101.813 97.8298L100.399 96.4156L98.9846 97.8298L100.399 99.2441ZM108.856 111.562L106.857 111.631L106.857 111.643L106.858 111.655L108.856 111.562ZM103.994 117.731C101.848 119.878 99.8129 120.708 97.8479 120.64L97.7101 124.637C101.077 124.754 104.128 123.255 106.823 120.56L103.994 117.731ZM97.8719 120.641C95.8857 120.548 93.7559 119.556 91.4716 117.272L88.6432 120.1C91.384 122.841 94.402 124.484 97.6861 124.637L97.8719 120.641ZM91.4716 117.272L74.1899 99.9901L71.3615 102.818L88.6432 120.1L91.4716 117.272ZM74.1899 99.9901C71.9056 97.7057 70.9132 95.5759 70.8208 93.5897L66.8251 93.7756C66.9779 97.0597 68.6207 100.078 71.3615 102.818L74.1899 99.9901ZM70.8218 93.6137C70.754 91.6488 71.584 89.6135 73.7303 87.4672L70.9019 84.6388C68.2068 87.3338 66.7081 90.385 66.8242 93.7516L70.8218 93.6137ZM73.7303 87.4672C75.8785 85.319 77.8894 84.5145 79.8069 84.6037L79.9927 80.608C76.6398 80.452 73.595 81.9456 70.9019 84.6388L73.7303 87.4672ZM79.8309 84.6046C81.8412 84.674 83.9771 85.6507 86.2532 87.9268L89.0816 85.0984C86.3325 82.3493 83.2899 80.7215 79.9687 80.607L79.8309 84.6046ZM86.2532 87.9268L89.6543 91.328L92.4828 88.4996L89.0816 85.0984L86.2532 87.9268ZM89.6543 88.4996L84.8743 93.2796L87.7027 96.108L92.4828 91.328L89.6543 88.4996ZM87.7027 93.2796L83.9798 89.5567L81.1514 92.3851L84.8743 96.108L87.7027 93.2796ZM83.9798 89.5567C82.8183 88.3952 81.4428 87.5011 79.8591 87.3691C78.1918 87.2302 76.7642 87.9688 75.6359 89.0971L78.4644 91.9255C79.0214 91.3685 79.3556 91.3411 79.5269 91.3553C79.7816 91.3766 80.3212 91.5549 81.1514 92.3851L83.9798 89.5567ZM75.6359 89.0971C74.5077 90.2253 73.7691 91.6529 73.908 93.3202C74.04 94.9039 74.9341 96.2794 76.0956 97.4409L78.924 94.6125C78.0938 93.7823 77.9154 93.2428 77.8942 92.988C77.8799 92.8168 77.9074 92.4825 78.4644 91.9255L75.6359 89.0971ZM76.0956 97.4409L94.0667 115.412L96.8951 112.584L78.924 94.6125L76.0956 97.4409ZM94.0667 115.412C95.2171 116.563 96.5865 117.447 98.1682 117.566C99.8262 117.692 101.243 116.947 102.365 115.826L99.5362 112.997C98.9722 113.561 98.6351 113.59 98.4699 113.578C98.2284 113.559 97.7057 113.394 96.8951 112.584L94.0667 115.412ZM102.365 115.826C103.486 114.704 104.231 113.287 104.105 111.629C103.986 110.048 103.101 108.678 101.951 107.528L99.1225 110.356C99.9331 111.167 100.098 111.69 100.117 111.931C100.129 112.096 100.1 112.433 99.5362 112.997L102.365 115.826ZM101.951 107.528L97.033 102.61L94.2046 105.438L99.1225 110.356L101.951 107.528ZM97.033 105.438L101.813 100.658L98.9846 97.8298L94.2046 102.61L97.033 105.438ZM98.9846 100.658L103.535 105.208L106.363 102.38L101.813 97.8298L98.9846 100.658ZM103.535 105.208C105.811 107.485 106.788 109.62 106.857 111.631L110.855 111.493C110.74 108.172 109.112 105.129 106.363 102.38L103.535 105.208ZM106.858 111.655C106.947 113.572 106.143 115.583 103.994 117.731L106.823 120.56C109.516 117.867 111.01 114.822 110.854 111.469L106.858 111.655Z" fill="#FF1053" fill-opacity="0.25"/>
<path d="M92 76.3087C96.2189 72.0898 100.243 77.9656 104.256 73.9525C107.754 70.4539 102.084 66.2245 106.2 62.1085C110.316 57.9925 113.928 64.2799 117.736 60.4726C122.057 56.1508 114.638 53.6707 119.577 48.7315C123.796 44.5126 127.82 50.3884 131.833 46.3753C135.331 42.8768 129.661 38.6473 133.777 34.5313C137.893 30.4153 141.505 36.7028 145.313 32.8955C149.634 28.5737 142.215 26.0935 147.154 21.1543C151.373 16.9354 155.397 22.8113 159.41 18.7982C162.909 15.2996 157.239 11.0701 161.355 6.95414C165.471 2.83815 169.083 9.12559 172.89 5.3183" stroke="#F7B32B" stroke-opacity="0.25" stroke-width="2"/>
<path d="M113 95.9401C117.219 91.7212 121.243 97.5971 125.256 93.584C128.754 90.0854 123.084 85.8559 127.2 81.7399C131.316 77.6239 134.928 83.9114 138.736 80.1041C143.057 75.7823 135.638 73.3022 140.577 68.363C144.796 64.1441 148.82 70.0199 152.833 66.0068C156.331 62.5082 150.661 58.2788 154.777 54.1628C158.893 50.0468 162.505 56.3342 166.313 52.5269C170.634 48.2051 163.215 45.725 168.154 40.7858C172.373 36.5669 176.397 42.4427 180.41 38.4297C183.909 34.9311 178.239 30.7016 182.355 26.5856C186.471 22.4696 190.083 28.7571 193.89 24.9498" stroke="#F7B32B" stroke-opacity="0.25" stroke-width="2"/>
<path d="M102 86.9401C106.219 82.7212 110.243 88.5971 114.256 84.584C117.754 81.0854 112.084 76.8559 116.2 72.7399C120.316 68.6239 123.928 74.9114 127.736 71.1041C132.057 66.7823 124.638 64.3022 129.577 59.363C133.796 55.1441 137.82 61.0199 141.833 57.0068C145.331 53.5082 139.661 49.2788 143.777 45.1628C147.893 41.0468 151.505 47.3342 155.313 43.5269C159.634 39.2051 152.215 36.725 157.154 31.7858C161.373 27.5669 165.397 33.4427 169.41 29.4297C172.909 25.9311 167.239 21.7016 171.355 17.5856C175.471 13.4696 179.083 19.7571 182.89 15.9498" stroke="#F7B32B" stroke-opacity="0.25" stroke-width="2"/>
</svg>
