<svg width="158" height="190" viewBox="0 0 158 190" fill="none" xmlns="http://www.w3.org/2000/svg">
<mask id="mask0_238_1273" style="mask-type:alpha" maskUnits="userSpaceOnUse" x="91" y="49" width="50" height="51">
<rect x="115.735" y="49.5482" width="35.0102" height="34.9811" transform="rotate(45 115.735 49.5482)" fill="#D9D9D9"/>
</mask>
<g mask="url(#mask0_238_1273)">
<path d="M39.3306 55.2427H129.84M96.6063 112.518L187.116 112.518M204.794 220.706L295.303 220.706M45.6946 61.6066L136.204 61.6066M153.882 169.794L244.392 169.794M102.97 118.882L193.48 118.882M52.0585 67.9706L142.568 67.9706M160.246 176.158L250.756 176.158M109.334 125.246L199.844 125.246M217.522 233.434L308.031 233.434M58.4225 74.3346L148.932 74.3346M166.61 182.522L257.12 182.522M115.698 131.61L206.208 131.61M223.885 239.798L314.395 239.798M64.7865 80.6985L155.296 80.6985M172.974 188.886L263.483 188.886M122.062 137.974L212.572 137.974M230.249 246.162L320.759 246.162M71.1504 87.0625L161.66 87.0625M179.338 195.25L269.847 195.25M128.426 144.338L218.936 144.338M236.613 252.525L327.123 252.525M77.5144 93.4265L168.024 93.4265M185.702 201.614L276.211 201.614M134.79 150.702L225.3 150.702M242.977 258.889L333.487 258.889M83.8783 99.7904L174.388 99.7904M192.066 207.978L282.575 207.978M141.154 157.066L231.664 157.066M249.341 265.253L339.851 265.253M90.2423 106.154L180.752 106.154M198.43 214.342L288.939 214.342M147.518 163.43L238.028 163.43M255.705 271.617L346.215 271.617M211.158 227.07L301.667 227.07" stroke="#FF1053" stroke-opacity="0.25" stroke-width="2"/>
</g>
<rect x="140.324" y="104.555" width="12.1783" height="12.1497" transform="rotate(135 140.324 104.555)" stroke="#FF1053" stroke-opacity="0.2" stroke-width="3"/>
<rect x="155.324" y="89.7124" width="12.1783" height="12.1497" transform="rotate(135 155.324 89.7124)" stroke="#FF1053" stroke-opacity="0.2" stroke-width="3"/>
<path d="M54.3304 59.8934L55.7447 58.4792L54.3304 57.065L52.9162 58.4792L54.3304 59.8934ZM67.2549 77.004L65.2551 76.9786L65.2549 76.9913V77.004L67.2549 77.004ZM49.7258 91.0796L50.5092 89.2395L49.2666 88.7104L48.3116 89.6654L49.7258 91.0796ZM49.6211 91.1843L48.2069 89.7701L47.1547 90.8223L47.8602 92.1325L49.6211 91.1843ZM49.9874 96.6785L48.128 95.9418L48.1197 95.9627L48.1119 95.9839L49.9874 96.6785ZM36.8013 111.853L35.2468 110.595L35.2395 110.604L36.8013 111.853ZM35.4408 114.26L34.0266 115.674L36.2027 117.85L37.3075 114.978L35.4408 114.26ZM29.5803 108.399L27.776 107.537L27.1655 108.813L28.1661 109.814L29.5803 108.399ZM42.9234 92.3354L40.9371 92.1018L40.9334 92.1331L40.9307 92.1646L42.9234 92.3354ZM39.1559 86.5796L40.5701 85.1654L39.1559 83.7512L37.7417 85.1654L39.1559 86.5796ZM23.4582 102.277L22.0439 103.692L23.4582 105.106L24.8724 103.692L23.4582 102.277ZM17.7023 96.5215L16.2881 95.1073L14.8739 96.5215L16.2881 97.9357L17.7023 96.5215ZM49.9351 85.1145L49.9351 83.1145H49.9048L49.8745 83.1154L49.9351 85.1145ZM58.7781 76.5853L56.7957 76.321L56.7909 76.3568L56.7874 76.3927L58.7781 76.5853ZM54.8537 70.8818L56.2679 69.4676L54.8537 68.0534L53.4395 69.4676L54.8537 70.8818ZM44.3885 81.347L42.9743 79.9328L41.5601 81.347L42.9743 82.7612L44.3885 81.347ZM52.9162 61.3076L61.4454 69.8367L64.2738 67.0083L55.7447 58.4792L52.9162 61.3076ZM61.4454 69.8367C64.2253 72.6167 65.2803 74.9874 65.2551 76.9786L69.2548 77.0293C69.2993 73.5088 67.4241 70.1586 64.2738 67.0083L61.4454 69.8367ZM65.2549 77.004C65.2549 78.984 64.2165 81.2954 61.55 83.9619L64.3784 86.7903C67.4329 83.7358 69.2549 80.4658 69.2549 77.004L65.2549 77.004ZM61.55 83.9619L59.3 86.2119L62.1284 89.0403L64.3784 86.7903L61.55 83.9619ZM59.3 86.2119C57.5406 87.9713 55.9416 88.9851 54.5157 89.4333C53.1373 89.8665 51.8313 89.8023 50.5092 89.2395L48.9423 92.9198C51.1435 93.8569 53.4305 93.9672 55.715 93.2492C57.9519 92.5462 60.0854 91.0833 62.1284 89.0403L59.3 86.2119ZM48.3116 89.6654L48.2069 89.7701L51.0353 92.5985L51.14 92.4938L48.3116 89.6654ZM47.8602 92.1325C48.5687 93.4483 48.6344 94.6639 48.128 95.9418L51.8468 97.4152C52.8055 94.9954 52.627 92.5482 51.3821 90.2361L47.8602 92.1325ZM48.1119 95.9839C47.5528 97.4934 46.3379 99.2787 44.2825 101.334L47.1109 104.163C49.3811 101.892 51.0266 99.631 51.8629 97.3731L48.1119 95.9839ZM44.2825 101.334L37.8464 107.77L40.6748 110.599L47.1109 104.163L44.2825 101.334ZM37.8464 107.77C36.7748 108.842 35.9012 109.786 35.2468 110.595L38.3558 113.111C38.8874 112.455 39.6533 111.62 40.6748 110.599L37.8464 107.77ZM35.2395 110.604C34.5423 111.475 33.9903 112.46 33.5741 113.542L37.3075 114.978C37.589 114.246 37.9439 113.626 38.363 113.102L35.2395 110.604ZM36.855 112.846L30.9945 106.985L28.1661 109.814L34.0266 115.674L36.855 112.846ZM31.3846 109.262C31.7197 108.562 32.0692 107.986 32.4248 107.521L29.2474 105.092C28.696 105.813 28.2083 106.633 27.776 107.537L31.3846 109.262ZM32.4248 107.521C32.7876 107.047 33.6058 106.156 34.9713 104.79L32.1428 101.962C30.7873 103.318 29.7916 104.38 29.2474 105.092L32.4248 107.521ZM34.9713 104.79L41.669 98.0927L38.8406 95.2643L32.1428 101.962L34.9713 104.79ZM41.669 98.0927C43.4087 96.353 44.7477 94.4713 44.9161 92.5062L40.9307 92.1646C40.8898 92.6415 40.4497 93.6551 38.8406 95.2643L41.669 98.0927ZM44.9097 92.5691C45.1537 90.4955 44.0683 88.6636 42.5585 87.1538L39.7301 89.9822C40.8715 91.1236 40.9722 91.8033 40.9371 92.1018L44.9097 92.5691ZM42.5585 87.1538L40.5701 85.1654L37.7417 87.9938L39.7301 89.9822L42.5585 87.1538ZM37.7417 85.1654L22.0439 100.863L24.8724 103.692L40.5701 87.9938L37.7417 85.1654ZM24.8724 100.863L19.1165 95.1073L16.2881 97.9357L22.0439 103.692L24.8724 100.863ZM19.1165 97.9357L55.7447 61.3076L52.9162 58.4792L16.2881 95.1073L19.1165 97.9357ZM45.0673 84.8543C46.4438 86.2307 48.0972 87.1711 49.9957 87.1136L49.8745 83.1154C49.4706 83.1276 48.8216 82.9517 47.8958 82.0258L45.0673 84.8543ZM49.9351 87.1145C51.9111 87.1145 53.6866 85.9705 55.2214 84.4356L52.393 81.6072C51.1371 82.8631 50.3312 83.1145 49.9351 83.1145L49.9351 87.1145ZM55.2214 84.4356L58.047 81.61L55.2186 78.7816L52.393 81.6072L55.2214 84.4356ZM58.047 81.61C59.4849 80.1722 60.597 78.5536 60.7688 76.778L56.7874 76.3927C56.75 76.7799 56.4319 77.5683 55.2186 78.7816L58.047 81.61ZM60.7606 76.8497C61.0095 74.9831 60.1683 73.368 58.8842 72.0839L56.0558 74.9123C56.795 75.6515 56.8259 76.0946 56.7957 76.321L60.7606 76.8497ZM58.8842 72.0839L56.2679 69.4676L53.4395 72.296L56.0558 74.9123L58.8842 72.0839ZM53.4395 69.4676L42.9743 79.9328L45.8027 82.7612L56.2679 72.296L53.4395 69.4676ZM42.9743 82.7612L45.0673 84.8543L47.8958 82.0258L45.8027 79.9328L42.9743 82.7612ZM75.4345 80.9975L76.8488 79.5833L75.4345 78.1691L74.0203 79.5833L75.4345 80.9975ZM91.1323 96.6953L92.5465 98.1095L93.9607 96.6953L92.5465 95.281L91.1323 96.6953ZM85.8997 101.928L84.4855 103.342L85.8997 104.756L87.3139 103.342L85.8997 101.928ZM75.9578 91.9859L77.372 90.5717L75.9578 89.1575L74.5436 90.5717L75.9578 91.9859ZM66.2775 101.666L64.8633 100.252L63.4491 101.666L64.8633 103.08L66.2775 101.666ZM74.1787 109.567L75.5929 110.982L77.0072 109.567L75.5929 108.153L74.1787 109.567ZM68.9461 114.8L67.5319 116.214L68.9461 117.628L70.3603 116.214L68.9461 114.8ZM61.0449 106.899L62.4591 105.485L61.0449 104.07L59.6307 105.485L61.0449 106.899ZM49.7949 118.149L48.3806 116.735L46.9664 118.149L48.3806 119.563L49.7949 118.149ZM59.7368 128.091L61.151 129.505L62.5652 128.091L61.151 126.677L59.7368 128.091ZM54.5042 133.323L53.09 134.738L54.5042 136.152L55.9184 134.738L54.5042 133.323ZM38.8064 117.626L37.3922 116.211L35.978 117.626L37.3922 119.04L38.8064 117.626ZM74.0203 82.4117L89.7181 98.1095L92.5465 95.281L76.8488 79.5833L74.0203 82.4117ZM89.7181 95.281L84.4855 100.514L87.3139 103.342L92.5465 98.1095L89.7181 95.281ZM87.3139 100.514L77.372 90.5717L74.5436 93.4001L84.4855 103.342L87.3139 100.514ZM74.5436 90.5717L64.8633 100.252L67.6917 103.08L77.372 93.4001L74.5436 90.5717ZM64.8633 103.08L72.7645 110.982L75.5929 108.153L67.6917 100.252L64.8633 103.08ZM72.7645 108.153L67.5319 113.386L70.3603 116.214L75.5929 110.982L72.7645 108.153ZM70.3603 113.386L62.4591 105.485L59.6307 108.313L67.5319 116.214L70.3603 113.386ZM59.6307 105.485L48.3806 116.735L51.2091 119.563L62.4591 108.313L59.6307 105.485ZM48.3806 119.563L58.3226 129.505L61.151 126.677L51.2091 116.735L48.3806 119.563ZM58.3226 126.677L53.09 131.909L55.9184 134.738L61.151 129.505L58.3226 126.677ZM55.9184 131.909L40.2206 116.211L37.3922 119.04L53.09 134.738L55.9184 131.909ZM40.2206 119.04L76.8488 82.4117L74.0203 79.5833L37.3922 116.211L40.2206 119.04ZM60.9002 136.057L58.9035 135.942L58.9029 135.953L58.9024 135.964L60.9002 136.057ZM67.7026 124.964L69.1168 123.549L67.7026 122.135L66.2884 123.549L67.7026 124.964ZM73.1445 130.405L74.5587 131.82L75.9729 130.405L74.5587 128.991L73.1445 130.405ZM73.0921 140.818L72.9674 138.822L72.9591 138.823L73.0921 140.818ZM79.6852 133.702L77.7492 133.2L77.7459 133.213L77.7428 133.225L79.6852 133.702ZM80.0515 125.591L78.0553 125.716L78.0563 125.73L80.0515 125.591ZM80.7317 114.969L78.8106 114.413L78.8082 114.422L78.8058 114.43L80.7317 114.969ZM93.9702 103.301L94.0391 105.299L94.0501 105.299L94.061 105.299L93.9702 103.301ZM106.581 115.911L104.586 115.772L104.584 115.795L104.583 115.818L106.581 115.911ZM100.406 126.376L98.992 127.791L100.406 129.205L101.82 127.791L100.406 126.376ZM94.9644 120.934L93.5502 119.52L92.1359 120.934L93.5502 122.349L94.9644 120.934ZM98.8365 115.597L96.8458 115.405L96.8429 115.434L96.8409 115.464L98.8365 115.597ZM88.5283 117.952L86.5859 117.475L86.5807 117.497L86.5759 117.518L88.5283 117.952ZM88.2667 126.062L86.2714 126.201L86.2715 126.202L88.2667 126.062ZM87.5341 136.737L85.622 136.15L87.5341 136.737ZM73.7201 148.772L73.6527 146.773L73.641 146.773L73.6292 146.774L73.7201 148.772ZM66.2912 143.328C63.7666 140.804 62.7922 138.425 62.898 136.15L58.9024 135.964C58.7291 139.688 60.4059 143.1 63.4628 146.157L66.2912 143.328ZM62.8969 136.171C63.034 133.785 64.2735 131.221 67.0238 128.471L64.1953 125.642C61.0153 128.822 59.1152 132.258 58.9035 135.942L62.8969 136.171ZM67.0238 128.471L69.1168 126.378L66.2884 123.549L64.1953 125.642L67.0238 128.471ZM66.2884 126.378L71.7303 131.82L74.5587 128.991L69.1168 123.549L66.2884 126.378ZM71.7303 128.991L69.2186 131.503L72.047 134.331L74.5587 131.82L71.7303 128.991ZM69.2186 131.503C67.8694 132.852 66.8716 134.405 66.7175 136.156C66.5557 137.995 67.3589 139.588 68.643 140.872L71.4715 138.044C70.7672 137.339 70.6721 136.848 70.7021 136.507C70.7399 136.078 71.0241 135.354 72.047 134.331L69.2186 131.503ZM68.643 140.872C69.8905 142.119 71.4345 142.933 73.2252 142.814L72.9591 138.823C72.6567 138.843 72.1775 138.75 71.4715 138.044L68.643 140.872ZM73.2169 142.814C75.046 142.7 76.6857 141.623 78.1168 140.192L75.2884 137.363C74.1382 138.514 73.3709 138.797 72.9674 138.822L73.2169 142.814ZM78.1168 140.192C79.8732 138.435 81.0754 136.43 81.6276 134.178L77.7428 133.225C77.388 134.672 76.6019 136.05 75.2884 137.363L78.1168 140.192ZM81.6212 134.204C82.191 132.006 82.2957 129.046 82.0467 125.453L78.0563 125.73C78.2956 129.183 78.1561 131.63 77.7492 133.2L81.6212 134.204ZM82.0476 125.467C81.7747 121.1 82.012 117.814 82.6577 115.509L78.8058 114.43C77.9863 117.357 77.7702 121.153 78.0554 125.716L82.0476 125.467ZM82.6529 115.525C83.3181 113.227 84.5776 111.126 86.489 109.215L83.6606 106.386C81.3161 108.731 79.6802 111.409 78.8106 114.413L82.6529 115.525ZM86.489 109.215C89.1532 106.551 91.6653 105.381 94.0391 105.299L93.9013 101.302C90.2052 101.429 86.7871 103.26 83.6606 106.386L86.489 109.215ZM94.061 105.299C96.4197 105.191 98.8334 106.178 101.347 108.692L104.175 105.863C101.107 102.795 97.6602 101.131 93.8794 101.303L94.061 105.299ZM101.347 108.692C103.823 111.167 104.743 113.51 104.586 115.772L108.576 116.05C108.837 112.312 107.211 108.899 104.175 105.863L101.347 108.692ZM104.583 115.818C104.474 118.153 103.262 120.692 100.51 123.445L103.338 126.273C106.516 123.095 108.408 119.669 108.579 116.004L104.583 115.818ZM100.51 123.445L98.992 124.962L101.82 127.791L103.338 126.273L100.51 123.445ZM101.82 124.962L96.3786 119.52L93.5502 122.349L98.992 127.791L101.82 124.962ZM96.3786 122.349L98.2623 120.465L95.4339 117.636L93.5502 119.52L96.3786 122.349ZM98.2623 120.465C99.6419 119.085 100.714 117.499 100.832 115.73L96.8409 115.464C96.8193 115.789 96.566 116.504 95.4339 117.636L98.2623 120.465ZM100.827 115.79C101.002 113.98 100.254 112.408 98.9949 111.148L96.1665 113.976C96.7906 114.601 96.88 115.051 96.8458 115.405L100.827 115.79ZM98.9949 111.148C97.7359 109.889 96.1644 109.111 94.35 109.29C92.6329 109.459 91.1089 110.45 89.7827 111.776L92.6111 114.604C93.6221 113.593 94.3307 113.311 94.7415 113.271C95.0551 113.24 95.5068 113.317 96.1665 113.976L98.9949 111.148ZM89.7827 111.776C88.1945 113.364 87.125 115.277 86.5859 117.475L90.4707 118.428C90.8385 116.929 91.5482 115.667 92.6111 114.604L89.7827 111.776ZM86.5759 117.518C86.0944 119.685 86.023 122.616 86.2714 126.201L90.2619 125.924C90.0219 122.462 90.1249 119.986 90.4807 118.386L86.5759 117.518ZM86.2715 126.202C86.578 130.595 86.3206 133.872 85.622 136.15L89.4462 137.323C90.3522 134.369 90.5832 130.53 90.2618 125.923L86.2715 126.202ZM85.622 136.15C84.9321 138.4 83.5778 140.586 81.4629 142.701L84.2913 145.529C86.781 143.039 88.5314 140.306 89.4462 137.323L85.622 136.15ZM81.4629 142.701C78.6885 145.475 76.0895 146.691 73.6527 146.773L73.7874 150.771C77.5599 150.643 81.0657 148.755 84.2913 145.529L81.4629 142.701ZM73.6292 146.774C71.2774 146.881 68.8456 145.883 66.2912 143.328L63.4628 146.157C66.5595 149.254 70.0232 150.942 73.8109 150.77L73.6292 146.774ZM113.282 129.31L114.696 130.724L116.111 129.31L114.696 127.896L113.282 129.31ZM107.265 123.293L105.85 121.879L104.436 123.293L105.85 124.707L107.265 123.293ZM112.497 118.06L113.911 116.646L112.497 115.232L111.083 116.646L112.497 118.06ZM130.288 135.851L131.702 137.265L133.116 135.851L131.702 134.437L130.288 135.851ZM125.055 141.084L123.641 142.498L125.055 143.912L126.47 142.498L125.055 141.084ZM119.038 135.066L120.452 133.652L119.038 132.238L117.624 133.652L119.038 135.066ZM87.6424 166.462L86.2282 167.876L87.6424 169.29L89.0566 167.876L87.6424 166.462ZM81.8866 160.706L80.4724 159.292L79.0581 160.706L80.4724 162.12L81.8866 160.706ZM114.696 127.896L108.679 121.879L105.85 124.707L111.868 130.724L114.696 127.896ZM108.679 124.707L113.911 119.474L111.083 116.646L105.85 121.879L108.679 124.707ZM111.083 119.474L128.874 137.265L131.702 134.437L113.911 116.646L111.083 119.474ZM128.874 134.437L123.641 139.669L126.47 142.498L131.702 137.265L128.874 134.437ZM126.47 139.669L120.452 133.652L117.624 136.48L123.641 142.498L126.47 139.669ZM117.624 133.652L86.2282 165.047L89.0566 167.876L120.452 136.48L117.624 133.652ZM89.0566 165.047L83.3008 159.292L80.4724 162.12L86.2282 167.876L89.0566 165.047ZM83.3008 162.12L114.696 130.724L111.868 127.896L80.4724 159.292L83.3008 162.12Z" fill="#31AFD4" fill-opacity="0.2"/>
<path d="M67.4561 0L75.9413 8.48528L67.4561 16.9706L58.9708 8.48528L67.4561 0Z" fill="#F7B32B" fill-opacity="0.2"/>
<path d="M50.4855 16.9706L58.9708 25.4558L50.4855 33.9411L42.0002 25.4558L50.4855 16.9706Z" fill="#F7B32B" fill-opacity="0.2"/>
<path d="M84.4266 16.9706L92.9119 25.4558L84.4266 33.9411L75.9413 25.4558L84.4266 16.9706Z" fill="#F7B32B" fill-opacity="0.2"/>
<path d="M67.4561 33.9411L75.9413 42.4264L67.4561 50.9117L58.9708 42.4264L67.4561 33.9411Z" fill="#F7B32B" fill-opacity="0.2"/>
<path d="M101.397 33.9411L109.882 42.4264L101.397 50.9117L92.9119 42.4264L101.397 33.9411Z" fill="#F7B32B" fill-opacity="0.2"/>
<path d="M84.4266 50.9117L92.9119 59.397L84.4266 67.8822L75.9413 59.397L84.4266 50.9117Z" fill="#F7B32B" fill-opacity="0.2"/>
</svg>
