<svg width="254" height="233" viewBox="0 0 254 233" fill="none" xmlns="http://www.w3.org/2000/svg">
<path d="M60.847 184.537L60.7201 182.541L60.714 182.542L60.847 184.537ZM55.7191 177.839L54.3049 179.254L55.7191 180.668L57.1333 179.254L55.7191 177.839ZM61.161 172.397L62.5752 173.812L63.9894 172.397L62.5752 170.983L61.161 172.397ZM60.3761 192.752L60.503 194.748L60.5091 194.748L60.3761 192.752ZM65.1901 199.659L66.6043 198.245L65.1901 196.831L63.7759 198.245L65.1901 199.659ZM59.7482 205.101L58.334 203.687L56.9198 205.101L58.334 206.515L59.7482 205.101ZM80.9416 209.341C84.0496 206.233 85.7127 202.712 85.5681 198.967C85.4247 195.256 83.5203 191.719 80.3137 188.512L77.4853 191.341C80.2438 194.099 81.4789 196.737 81.5711 199.122C81.6619 201.473 80.6563 203.969 78.1132 206.513L80.9416 209.341ZM80.3137 188.512C77.8614 186.06 75.3365 184.361 72.1395 183.394C68.9954 182.444 65.3459 182.247 60.7201 182.541L60.9739 186.533C65.4005 186.252 68.5011 186.473 70.982 187.223C73.41 187.957 75.3851 189.241 77.4853 191.341L80.3137 188.512ZM60.714 182.542C57.2333 182.774 54.9186 182.691 53.2087 182.3C51.5877 181.929 50.4676 181.271 49.3891 180.193L46.5606 183.021C48.1507 184.611 49.9347 185.654 52.3167 186.199C54.6097 186.723 57.3968 186.772 60.9801 186.533L60.714 182.542ZM49.3891 180.193C48.292 179.096 48.0525 178.387 48.0276 178.024C48.008 177.736 48.0973 177.301 48.7612 176.637L45.9327 173.809C44.7652 174.976 43.9126 176.477 44.0369 178.296C44.156 180.039 45.146 181.606 46.5606 183.021L49.3891 180.193ZM48.7612 176.637C49.4236 175.975 49.8497 175.892 50.1378 175.915C50.5179 175.945 51.2597 176.208 52.4211 177.37L55.2496 174.541C53.7948 173.087 52.208 172.068 50.4558 171.928C48.6116 171.781 47.1017 172.64 45.9327 173.809L48.7612 176.637ZM52.4211 177.37L54.3049 179.254L57.1333 176.425L55.2496 174.541L52.4211 177.37ZM57.1333 179.254L62.5752 173.812L59.7468 170.983L54.3049 176.425L57.1333 179.254ZM62.5752 170.983L61.0577 169.466L58.2293 172.294L59.7468 173.812L62.5752 170.983ZM61.0577 169.466C57.9275 166.336 54.4979 164.384 50.8737 164.168C47.1943 163.948 43.7355 165.541 40.6478 168.629L43.4762 171.457C45.9874 168.946 48.3891 168.027 50.6357 168.161C52.9373 168.298 55.499 169.564 58.2293 172.294L61.0577 169.466ZM40.6478 168.629C37.5623 171.714 35.9302 175.208 36.067 178.901C36.2026 182.562 38.0631 186.035 41.1711 189.143L43.9995 186.315C41.3516 183.667 40.1511 181.096 40.0643 178.753C39.9787 176.442 40.9629 173.97 43.4762 171.457L40.6478 168.629ZM41.1711 189.143C43.4654 191.437 45.9361 193.036 49.1022 193.948C52.2127 194.844 55.8757 195.042 60.503 194.748L60.2492 190.756C55.8241 191.038 52.6848 190.817 50.2094 190.104C47.7898 189.407 45.8913 188.207 43.9995 186.315L41.1711 189.143ZM60.5091 194.748C63.9866 194.516 66.2678 194.614 67.9877 195.05C69.6196 195.465 70.843 196.21 72.148 197.515L74.9764 194.687C73.2465 192.957 71.4089 191.792 68.9725 191.174C66.624 190.577 63.8296 190.518 60.2431 190.757L60.5091 194.748ZM72.148 197.515C73.3467 198.714 73.5915 199.477 73.6124 199.865C73.6298 200.188 73.5123 200.648 72.8283 201.332L75.6567 204.161C76.8041 203.013 77.7069 201.511 77.6066 199.65C77.5097 197.853 76.4987 196.209 74.9764 194.687L72.148 197.515ZM72.8283 201.332C72.143 202.018 71.6737 202.142 71.3512 202.128C70.9793 202.113 70.2498 201.891 69.1159 200.757L66.2875 203.585C67.77 205.068 69.3952 206.049 71.1817 206.125C73.0176 206.203 74.5105 205.307 75.6567 204.161L72.8283 201.332ZM69.1159 200.757L66.6043 198.245L63.7759 201.073L66.2875 203.585L69.1159 200.757ZM63.7759 198.245L58.334 203.687L61.1624 206.515L66.6043 201.073L63.7759 198.245ZM58.334 206.515L60.427 208.608L63.2554 205.78L61.1624 203.687L58.334 206.515ZM60.427 208.608C63.5632 211.745 67.011 213.683 70.6577 213.875C74.3529 214.069 77.832 212.451 80.9416 209.341L78.1132 206.513C75.5715 209.054 73.1379 210 70.8679 209.88C68.5495 209.758 65.9798 208.504 63.2554 205.78L60.427 208.608ZM93.3451 193.063L92.0808 194.612L93.4813 195.755L94.7593 194.477L93.3451 193.063ZM100.985 185.423L102.399 186.837L103.671 185.565L102.54 184.166L100.985 185.423ZM78.9031 158.109L77.4889 156.695L76.2166 157.967L77.3478 159.366L78.9031 158.109ZM79.0078 158.004L80.2652 156.449L78.8659 155.318L77.5936 156.59L79.0078 158.004ZM106.322 180.086L105.065 181.641L106.464 182.772L107.736 181.5L106.322 180.086ZM113.491 172.917L114.905 174.331L116.183 173.053L115.04 171.653L113.491 172.917ZM80.5776 132.574L82.1273 131.31L80.7283 129.595L79.1634 131.16L80.5776 132.574ZM75.6066 137.545L74.1924 136.131L72.9011 137.422L74.07 138.825L75.6066 137.545ZM101.194 168.26L102.608 169.674L103.899 168.383L102.731 166.98L101.194 168.26ZM101.089 168.365L99.8177 169.908L101.219 171.063L102.504 169.779L101.089 168.365ZM70.217 142.934L71.4886 141.391L70.0869 140.236L68.8028 141.52L70.217 142.934ZM63.9379 149.213L62.5237 147.799L61.2396 149.083L62.3942 150.485L63.9379 149.213ZM89.3683 180.086L90.7825 181.5L92.0667 180.216L90.912 178.814L89.3683 180.086ZM89.2637 180.19L87.9836 181.727L89.3866 182.896L90.6779 181.605L89.2637 180.19ZM58.5484 154.603L59.8285 153.066L58.4254 151.898L57.1342 153.189L58.5484 154.603ZM53.0018 160.15L51.5876 158.735L50.0227 160.3L51.7375 161.699L53.0018 160.15ZM94.7593 194.477L102.399 186.837L99.5705 184.009L91.9309 191.648L94.7593 194.477ZM102.54 184.166L80.4585 156.851L77.3478 159.366L99.4294 186.68L102.54 184.166ZM80.3174 159.523L80.422 159.418L77.5936 156.59L77.4889 156.695L80.3174 159.523ZM77.7504 159.56L105.065 181.641L107.579 178.53L80.2652 156.449L77.7504 159.56ZM107.736 181.5L114.905 174.331L112.076 171.503L104.908 178.671L107.736 181.5ZM115.04 171.653L82.1273 131.31L79.0279 133.838L111.941 174.181L115.04 171.653ZM79.1634 131.16L74.1924 136.131L77.0208 138.959L81.9918 133.988L79.1634 131.16ZM74.07 138.825L99.6573 169.54L102.731 166.98L77.1433 136.265L74.07 138.825ZM99.7798 166.846L99.6751 166.95L102.504 169.779L102.608 169.674L99.7798 166.846ZM102.361 166.821L71.4886 141.391L68.9454 144.478L99.8177 169.908L102.361 166.821ZM68.8028 141.52L62.5237 147.799L65.3521 150.628L71.6313 144.349L68.8028 141.52ZM62.3942 150.485L87.8246 181.357L90.912 178.814L65.4816 147.942L62.3942 150.485ZM87.9541 178.671L87.8495 178.776L90.6779 181.605L90.7825 181.5L87.9541 178.671ZM90.5438 178.654L59.8285 153.066L57.2683 156.14L87.9836 181.727L90.5438 178.654ZM57.1342 153.189L51.5876 158.735L54.416 161.564L59.9626 156.017L57.1342 153.189ZM51.7375 161.699L92.0808 194.612L94.6094 191.513L54.2661 158.6L51.7375 161.699ZM117.884 168.523L116.261 169.692L117.635 171.601L119.299 169.938L117.884 168.523ZM123.222 163.186L124.636 164.6L125.859 163.378L124.825 161.991L123.222 163.186ZM117.099 154.971L115.685 153.557L114.462 154.779L115.496 156.166L117.099 154.971ZM123.64 148.43L125.054 149.844L126.469 148.43L125.054 147.016L123.64 148.43ZM123.536 148.326L124.734 146.724L122.121 149.74L123.536 148.326ZM131.855 154.552L130.657 156.154L132.044 157.192L133.27 155.967L131.855 154.552ZM137.611 148.796L139.025 150.211L140.689 148.548L138.78 147.173L137.611 148.796ZM95.0179 118.133L96.1864 116.51L94.8062 115.517L93.6037 116.719L95.0179 118.133ZM87.2213 125.93L85.8071 124.516L84.6046 125.718L85.5982 127.099L87.2213 125.93ZM112.809 149.32L111.214 150.526L112.599 152.358L114.223 150.734L112.809 149.32ZM97.2156 128.703L95.8014 127.289L94.5698 128.521L95.6204 129.91L97.2156 128.703ZM97.3202 128.599L98.5222 127L97.1341 125.956L95.906 127.184L97.3202 128.599ZM117.989 144.139L119.403 145.554L121.032 143.925L119.191 142.541L117.989 144.139ZM119.299 169.938L124.636 164.6L121.807 161.772L116.47 167.109L119.299 169.938ZM124.825 161.991L118.703 153.776L115.496 156.166L121.618 164.381L124.825 161.991ZM118.514 156.385L125.054 149.844L122.226 147.016L115.685 153.557L118.514 156.385ZM125.054 147.016L124.95 146.911L122.121 149.74L122.226 149.844L125.054 147.016ZM122.337 149.927L130.657 156.154L133.054 152.951L124.734 146.724L122.337 149.927ZM133.27 155.967L139.025 150.211L136.197 147.382L130.441 153.138L133.27 155.967ZM138.78 147.173L96.1864 116.51L93.8494 119.757L136.443 150.42L138.78 147.173ZM93.6037 116.719L85.8071 124.516L88.6355 127.344L96.4321 119.548L93.6037 116.719ZM85.5982 127.099L116.261 169.692L119.507 167.355L88.8445 124.762L85.5982 127.099ZM114.404 148.113L98.8107 127.497L95.6204 129.91L111.214 150.526L114.404 148.113ZM98.6298 130.118L98.7344 130.013L95.906 127.184L95.8014 127.289L98.6298 130.118ZM96.1183 130.197L116.787 145.738L119.191 142.541L98.5222 127L96.1183 130.197ZM116.575 142.725L111.394 147.905L114.223 150.734L119.403 145.554L116.575 142.725ZM140.404 146.004L138.989 147.418L140.404 148.832L141.818 147.418L140.404 146.004ZM146.16 140.248L147.574 141.662L148.988 140.248L147.574 138.834L146.16 140.248ZM130.462 124.55L129.048 123.136L127.633 124.55L129.048 125.965L130.462 124.55ZM152.282 134.126L151.387 135.915L152.677 136.56L153.696 135.54L152.282 134.126ZM158.142 128.265L159.556 129.68L161.69 127.546L158.894 126.412L158.142 128.265ZM135.066 114.085L133.652 115.499L134.695 116.542L136 115.854L135.066 114.085ZM134.962 113.981L133.118 113.206L132.597 114.444L133.548 115.395L134.962 113.981ZM103.776 109.376L102.361 107.962L100.947 109.376L102.361 110.79L103.776 109.376ZM125.229 119.318L123.815 120.732L125.229 122.146L126.643 120.732L125.229 119.318ZM114.764 108.853L113.35 107.438L111.936 108.853L113.35 110.267L114.764 108.853ZM141.818 147.418L147.574 141.662L144.745 138.834L138.989 144.59L141.818 147.418ZM147.574 138.834L131.876 123.136L129.048 125.965L144.745 141.662L147.574 138.834ZM131.876 125.965L133.864 123.976L131.036 121.148L129.048 123.136L131.876 125.965ZM133.864 123.976C135.017 122.823 135.632 122.703 136.017 122.741C136.555 122.793 137.5 123.22 139.146 124.866L141.975 122.037C140.22 120.282 138.418 118.956 136.405 118.76C134.239 118.549 132.499 119.684 131.036 121.148L133.864 123.976ZM139.146 124.866L145.844 131.563L148.673 128.735L141.975 122.037L139.146 124.866ZM145.844 131.563C147.356 133.076 148.378 133.993 149.22 134.622C150.101 135.281 150.752 135.597 151.387 135.915L153.176 132.337C152.556 132.027 152.186 131.846 151.615 131.419C151.005 130.962 150.143 130.205 148.673 128.735L145.844 131.563ZM153.696 135.54L159.556 129.68L156.728 126.851L150.867 132.712L153.696 135.54ZM158.894 126.412C157.371 125.795 156.261 124.812 154.481 123.031L151.652 125.86C153.43 127.638 155.041 129.166 157.391 130.119L158.894 126.412ZM154.481 123.031L148.045 116.595L145.216 119.424L151.652 125.86L154.481 123.031ZM148.045 116.595C145.903 114.453 143.712 112.74 141.413 111.879C139.008 110.978 136.553 111.039 134.133 112.316L136 115.854C137.347 115.143 138.607 115.099 140.01 115.625C141.517 116.189 143.225 117.432 145.216 119.424L148.045 116.595ZM136.481 112.671L136.376 112.566L133.548 115.395L133.652 115.499L136.481 112.671ZM136.806 114.755C137.747 112.515 137.85 110.22 137.122 107.937C136.411 105.706 134.942 103.597 132.922 101.578L130.094 104.406C131.842 106.154 132.859 107.734 133.311 109.153C133.748 110.52 133.694 111.835 133.118 113.206L136.806 114.755ZM132.922 101.578L130.672 99.3278L127.844 102.156L130.094 104.406L132.922 101.578ZM130.672 99.3278C127.663 96.3181 124.439 94.4549 120.909 94.4383C117.373 94.4217 114.064 96.2585 110.89 99.4325L113.719 102.261C116.51 99.4698 118.852 98.4287 120.89 98.4382C122.932 98.4478 125.203 99.5148 127.844 102.156L130.672 99.3278ZM110.89 99.4325L102.361 107.962L105.19 110.79L113.719 102.261L110.89 99.4325ZM102.361 110.79L138.989 147.418L141.818 144.59L105.19 107.962L102.361 110.79ZM126.643 117.904L116.178 107.438L113.35 110.267L123.815 120.732L126.643 117.904ZM116.178 110.267L118.794 107.65L115.966 104.822L113.35 107.438L116.178 110.267ZM118.794 107.65C119.543 106.902 119.984 106.858 120.264 106.893C120.692 106.947 121.461 107.285 122.664 108.488L125.492 105.659C124.079 104.246 122.519 103.145 120.763 102.924C118.858 102.685 117.258 103.53 115.966 104.822L118.794 107.65ZM122.664 108.488L125.489 111.313L128.318 108.485L125.492 105.659L122.664 108.488ZM125.489 111.313C126.779 112.603 127.014 113.422 127.016 113.867C127.019 114.3 126.805 114.914 125.908 115.811L128.736 118.639C129.985 117.39 131.027 115.807 131.016 113.845C131.006 111.897 129.958 110.125 128.318 108.485L125.489 111.313ZM125.908 115.811L123.815 117.904L126.643 120.732L128.736 118.639L125.908 115.811ZM161.508 124.9L160.094 126.314L161.508 127.728L162.922 126.314L161.508 124.9ZM166.531 119.877L167.945 121.291L169.359 119.877L167.945 118.462L166.531 119.877ZM138.798 92.1438L137.384 90.7296L135.97 92.1438L137.384 93.5581L138.798 92.1438ZM138.903 92.0392L140.09 90.4297L138.706 89.4082L137.489 90.625L138.903 92.0392ZM170.822 115.586L169.634 117.195L171.019 118.217L172.236 117L170.822 115.586ZM175.636 110.772L177.05 112.186L178.267 110.969L177.245 109.585L175.636 110.772ZM152.089 78.8531L150.675 77.4389L149.458 78.6556L150.48 80.0404L152.089 78.8531ZM152.194 78.7484L153.608 77.3342L152.194 75.92L150.78 77.3342L152.194 78.7484ZM179.926 106.481L178.512 107.895L179.926 109.31L181.341 107.895L179.926 106.481ZM185.368 101.039L186.783 102.453L188.197 101.039L186.783 99.625L185.368 101.039ZM148.74 64.4111L150.154 62.9969L148.74 61.5827L147.326 62.9969L148.74 64.4111ZM140.525 72.6263L139.111 71.2121L137.88 72.4424L138.929 73.8312L140.525 72.6263ZM163.078 102.504L164.492 103.919L165.722 102.688L164.674 101.299L163.078 102.504ZM162.973 102.609L161.768 104.205L163.157 105.254L164.387 104.023L162.973 102.609ZM133.095 80.0566L134.3 78.4603L132.911 77.412L131.681 78.6424L133.095 80.0566ZM124.88 88.2717L123.465 86.8575L122.051 88.2717L123.465 89.6859L124.88 88.2717ZM162.922 126.314L167.945 121.291L165.117 118.462L160.094 123.486L162.922 126.314ZM167.945 118.462L140.213 90.7296L137.384 93.5581L165.117 121.291L167.945 118.462ZM140.213 93.5581L140.317 93.4534L137.489 90.625L137.384 90.7296L140.213 93.5581ZM137.716 93.6486L169.634 117.195L172.009 113.976L140.09 90.4297L137.716 93.6486ZM172.236 117L177.05 112.186L174.222 109.358L169.408 114.172L172.236 117ZM177.245 109.585L153.699 77.6658L150.48 80.0404L174.026 111.959L177.245 109.585ZM153.503 80.2673L153.608 80.1626L150.78 77.3342L150.675 77.4389L153.503 80.2673ZM150.78 80.1626L178.512 107.895L181.341 105.067L153.608 77.3342L150.78 80.1626ZM181.341 107.895L186.783 102.453L183.954 99.625L178.512 105.067L181.341 107.895ZM186.783 99.625L150.154 62.9969L147.326 65.8253L183.954 102.453L186.783 99.625ZM147.326 62.9969L139.111 71.2121L141.939 74.0405L150.154 65.8253L147.326 62.9969ZM138.929 73.8312L161.481 103.709L164.674 101.299L142.121 71.4214L138.929 73.8312ZM161.663 101.09L161.559 101.195L164.387 104.023L164.492 103.919L161.663 101.09ZM164.178 101.013L134.3 78.4603L131.89 81.6529L161.768 104.205L164.178 101.013ZM131.681 78.6424L123.465 86.8575L126.294 89.6859L134.509 81.4708L131.681 78.6424ZM123.465 89.6859L160.094 126.314L162.922 123.486L126.294 86.8575L123.465 89.6859ZM181.038 60.0554L182.452 61.4696L183.249 60.673L182.98 59.5789L181.038 60.0554ZM180.933 60.16L179.445 61.4961L180.855 63.0667L182.348 61.5743L180.933 60.16ZM172.666 50.9507L171.252 49.5365L169.912 50.8765L171.178 52.2867L172.666 50.9507ZM182.712 40.9041L184.127 42.3183L185.541 40.9041L184.127 39.4899L182.712 40.9041ZM177.48 35.6715L178.894 34.2573L177.48 32.8431L176.066 34.2573L177.48 35.6715ZM162.305 50.846L160.891 49.4318L159.547 50.7755L160.821 52.1862L162.305 50.846ZM181.718 72.352L180.234 73.6921L181.644 75.2546L183.132 73.7662L181.718 72.352ZM187.16 66.9101L188.574 68.3243L189.989 66.9101L188.574 65.4959L187.16 66.9101ZM191.765 71.5148L193.179 70.1005L191.765 68.6863L190.351 70.1005L191.765 71.5148ZM186.323 76.9567L184.909 75.5424L183.494 76.9567L184.909 78.3709L186.323 76.9567ZM208.406 81.8767C211.515 78.768 213.154 75.2698 212.993 71.5587C212.833 67.8865 210.926 64.4057 207.778 61.2575L204.949 64.0859C207.662 66.7982 208.894 69.3871 208.996 71.7324C209.097 74.0388 208.12 76.5058 205.577 79.0483L208.406 81.8767ZM207.778 61.2575L199.51 52.99L196.682 55.8184L204.949 64.0859L207.778 61.2575ZM199.51 52.99C196.663 50.1423 193.656 48.2583 190.568 47.8194C187.36 47.3635 184.413 48.5142 181.926 51.0016L184.755 53.83C186.506 52.079 188.242 51.5291 190.005 51.7796C191.888 52.0471 194.14 53.2765 196.682 55.8184L199.51 52.99ZM181.926 51.0016C179.155 53.7723 178.24 57.0442 179.096 60.5318L182.98 59.5789C182.475 57.5201 182.921 55.664 184.755 53.83L181.926 51.0016ZM179.624 58.6412L179.519 58.7458L182.348 61.5743L182.452 61.4696L179.624 58.6412ZM182.422 58.824L174.154 49.6146L171.178 52.2867L179.445 61.4961L182.422 58.824ZM174.08 52.3649L184.127 42.3183L181.298 39.4899L171.252 49.5365L174.08 52.3649ZM184.127 39.4899L178.894 34.2573L176.066 37.0857L181.298 42.3183L184.127 39.4899ZM176.066 34.2573L160.891 49.4318L163.72 52.2602L178.894 37.0857L176.066 34.2573ZM160.821 52.1862L180.234 73.6921L183.203 71.0119L163.79 49.5059L160.821 52.1862ZM183.132 73.7662L188.574 68.3243L185.746 65.4959L180.304 70.9378L183.132 73.7662ZM188.574 65.4959L188.26 65.1819L185.432 68.0103L185.746 68.3243L188.574 65.4959ZM188.26 65.1819C187.128 64.0494 186.883 63.2981 186.861 62.8976C186.843 62.5553 186.967 62.0824 187.632 61.4173L184.804 58.5889C183.638 59.7551 182.768 61.2706 182.867 63.1129C182.963 64.897 183.948 66.5266 185.432 68.0103L188.26 65.1819ZM187.632 61.4173C188.298 60.7522 188.77 60.6278 189.113 60.6462C189.513 60.6678 190.265 60.9127 191.397 62.0452L194.226 59.2168C192.742 57.733 191.112 56.7482 189.328 56.652C187.486 56.5527 185.97 57.4226 184.804 58.5889L187.632 61.4173ZM191.397 62.0452L199.612 70.2604L202.441 67.4319L194.226 59.2168L191.397 62.0452ZM199.612 70.2604C200.746 71.3942 200.968 72.1237 200.984 72.4956C200.998 72.8181 200.873 73.2874 200.188 73.9727L203.016 76.8011C204.162 75.6549 205.058 74.162 204.98 72.3261C204.905 70.5396 203.923 68.9144 202.441 67.4319L199.612 70.2604ZM200.188 73.9727C199.503 74.6579 199.033 74.7825 198.711 74.7688C198.339 74.753 197.609 74.5309 196.476 73.3971L193.647 76.2255C195.13 77.708 196.755 78.6894 198.541 78.7652C200.377 78.8431 201.87 77.9473 203.016 76.8011L200.188 73.9727ZM196.476 73.3971L193.179 70.1005L190.351 72.929L193.647 76.2255L196.476 73.3971ZM190.351 70.1005L184.909 75.5424L187.737 78.3709L193.179 72.929L190.351 70.1005ZM184.909 78.3709L187.787 81.2488L190.615 78.4204L187.737 75.5424L184.909 78.3709ZM187.787 81.2488C190.935 84.397 194.416 86.3039 198.088 86.4635C201.799 86.6249 205.297 84.9854 208.406 81.8767L205.577 79.0483C203.035 81.5908 200.568 82.5676 198.262 82.4673C195.916 82.3653 193.327 81.1326 190.615 78.4204L187.787 81.2488ZM218.89 67.5176L217.476 68.9318L218.89 70.346L220.304 68.9318L218.89 67.5176ZM235.53 50.8779L236.944 52.2921L238.358 50.8779L236.944 49.4637L235.53 50.8779ZM230.297 45.6453L231.711 44.2311L230.297 42.8169L228.883 44.2311L230.297 45.6453ZM219.361 56.5814L217.947 57.9957L219.361 59.4099L220.775 57.9957L219.361 56.5814ZM214.861 43.3953L212.862 43.4524L212.862 43.4541L214.861 43.3953ZM194.506 43.1337L193.092 44.5479L194.506 45.9621L195.92 44.5479L194.506 43.1337ZM199.948 37.6918L201.362 39.106L202.776 37.6918L201.362 36.2776L199.948 37.6918ZM207.745 44.8604L209.744 44.8128L209.744 44.8027L207.745 44.8604ZM220.304 68.9318L236.944 52.2921L234.115 49.4637L217.476 66.1033L220.304 68.9318ZM236.944 49.4637L231.711 44.2311L228.883 47.0595L234.115 52.2921L236.944 49.4637ZM228.883 44.2311L217.947 55.1672L220.775 57.9957L231.711 47.0595L228.883 44.2311ZM220.775 55.1672L219.99 54.3823L217.162 57.2108L217.947 57.9957L220.775 55.1672ZM219.99 54.3823C218.91 53.3021 218.222 52.2564 217.747 50.7144C217.246 49.0889 216.963 46.8486 216.86 43.3365L212.862 43.4541C212.968 47.0584 213.26 49.7367 213.924 51.8917C214.613 54.1303 215.678 55.727 217.162 57.2108L219.99 54.3823ZM216.86 43.3382C216.539 32.1138 214.385 25.8586 209.525 20.9984L206.697 23.8268C210.523 27.6527 212.555 32.7 212.862 43.4524L216.86 43.3382ZM209.525 20.9984C206.377 17.8502 202.896 15.9433 199.224 15.7837C195.513 15.6223 192.015 17.2618 188.906 20.3705L191.734 23.1989C194.277 20.6564 196.744 19.6796 199.05 19.7799C201.395 19.8819 203.984 21.1146 206.697 23.8268L209.525 20.9984ZM188.906 20.3705C185.797 23.4792 184.158 26.9774 184.319 30.6885C184.479 34.3607 186.386 37.8415 189.534 40.9897L192.362 38.1613C189.65 35.449 188.417 32.8601 188.315 30.5148C188.215 28.2084 189.192 25.7415 191.734 23.1989L188.906 20.3705ZM189.534 40.9897L193.092 44.5479L195.92 41.7195L192.362 38.1613L189.534 40.9897ZM195.92 44.5479L201.362 39.106L198.534 36.2776L193.092 41.7195L195.92 44.5479ZM201.362 36.2776L197.438 32.3531L194.609 35.1816L198.534 39.106L201.362 36.2776ZM197.438 32.3531C196.305 31.2206 196.06 30.4693 196.039 30.0689C196.02 29.7265 196.145 29.2536 196.81 28.5885L193.981 25.7601C192.815 26.9264 191.945 28.4418 192.045 30.2841C192.141 32.0683 193.126 33.6978 194.609 35.1816L197.438 32.3531ZM196.81 28.5885C197.506 27.8925 197.913 27.8106 198.227 27.8427C198.685 27.8895 199.607 28.2485 201.15 29.792L203.979 26.9636C202.225 25.2105 200.479 24.0521 198.634 23.8634C196.646 23.6601 195.117 24.6246 193.981 25.7601L196.81 28.5885ZM201.15 29.792C204.026 32.6682 205.49 36.0837 205.745 44.9182L209.744 44.8027C209.476 35.5324 207.905 30.8898 203.979 26.9636L201.15 29.792ZM205.745 44.908C205.852 49.4114 206.35 53.029 207.576 56.2473C208.814 59.494 210.74 62.1964 213.499 64.955L216.327 62.1266C213.853 59.6526 212.3 57.4102 211.314 54.8226C210.317 52.2065 209.846 49.1002 209.744 44.8128L205.745 44.908ZM213.499 64.955L217.476 68.9318L220.304 66.1033L216.327 62.1266L213.499 64.955Z" fill="#31AFD4" fill-opacity="0.66"/>
<rect x="28.2839" y="115.414" width="38" height="38" transform="rotate(45 28.2839 115.414)" stroke="#FF1053" stroke-width="2"/>
<rect x="62.1421" y="114.95" width="13" height="13" transform="rotate(45 62.1421 114.95)" stroke="#FF1053" stroke-width="7"/>
<rect x="110.353" y="63.203" width="18" height="60.7249" transform="rotate(45 110.353 63.203)" stroke="#FF1053" stroke-width="2"/>
<rect x="68.3477" y="74.5015" width="14.8824" height="48.9892" transform="rotate(45 68.3477 74.5015)" stroke="#FF1053"/>
<rect x="68.5" y="80.2071" width="6.77813" height="40.7193" transform="rotate(45 68.5 80.2071)" stroke="#FF1053"/>
<rect x="67.1914" y="86.2737" width="0.408041" height="30.2893" transform="rotate(45 67.1914 86.2737)" stroke="#FF1053" stroke-width="0.408041"/>
</svg>
