<svg width="42" height="31" viewBox="0 0 42 31" fill="none" xmlns="http://www.w3.org/2000/svg">
<path d="M41.1007 11.9727C40.9866 11.8758 39.9597 11.0807 37.7539 11.0807C37.1835 11.0807 36.594 11.1388 36.0235 11.2358C35.6052 8.26877 33.1902 6.83374 33.0951 6.75617L32.5056 6.40711L32.1253 6.96948C31.6499 7.72579 31.2887 8.57905 31.0795 9.4517C30.6802 11.1388 30.9274 12.729 31.764 14.0865C30.7562 14.6683 29.1209 14.804 28.7786 14.8234L1.77652 14.8234C1.07295 14.8234 0.502482 15.4052 0.502482 16.1227C0.464451 18.5273 0.863779 20.932 1.68145 23.2009C2.61321 25.6831 4.00134 27.5254 5.7888 28.6501C7.80445 29.9107 11.0941 30.6282 14.8022 30.6282C16.4755 30.6282 18.1489 30.473 19.8033 30.1628C22.1041 29.7361 24.3099 28.9216 26.3446 27.7387C28.018 26.7497 29.5202 25.4892 30.7942 24.0154C32.943 21.5525 34.217 18.7988 35.1488 16.3554H35.5291C37.868 16.3554 39.3132 15.4052 40.1119 14.5907C40.6443 14.0865 41.0436 13.4659 41.3289 12.7678L41.5 12.2636L41.1007 11.9727Z" fill="#9E9E9E"/>
<path d="M4.28658 14.0283H7.89953C8.07067 14.0283 8.22279 13.8926 8.22279 13.6986L8.22279 10.4019C8.22279 10.2274 8.08969 10.0723 7.89953 10.0723H4.28658C4.11544 10.0723 3.96331 10.208 3.96331 10.4019L3.96331 13.6986C3.98232 13.8926 4.11544 14.0283 4.28658 14.0283ZM9.26865 14.0283L12.8816 14.0283C13.0527 14.0283 13.2049 13.8926 13.2049 13.6986V10.4019C13.2049 10.2274 13.0718 10.0723 12.8816 10.0723L9.26865 10.0723C9.09751 10.0723 8.94538 10.208 8.94538 10.4019V13.6986C8.9644 13.8926 9.09751 14.0283 9.26865 14.0283ZM14.3458 14.0283H17.9588C18.1299 14.0283 18.282 13.8926 18.282 13.6986V10.4019C18.282 10.2274 18.1489 10.0723 17.9588 10.0723L14.3458 10.0723C14.1747 10.0723 14.0225 10.208 14.0225 10.4019V13.6986C14.0225 13.8926 14.1556 14.0283 14.3458 14.0283ZM19.3469 14.0283H22.9598C23.131 14.0283 23.2831 13.8926 23.2831 13.6986V10.4019C23.2831 10.2274 23.15 10.0723 22.9598 10.0723H19.3469C19.1757 10.0723 19.0236 10.208 19.0236 10.4019V13.6986C19.0236 13.8926 19.1757 14.0283 19.3469 14.0283ZM9.26865 9.31596L12.8816 9.31596C13.0527 9.31596 13.2049 9.16082 13.2049 8.98629L13.2049 5.68958C13.2049 5.51505 13.0718 5.35991 12.8816 5.35991H9.26865C9.09751 5.35991 8.94538 5.49566 8.94538 5.68958V8.98629C8.9644 9.16082 9.09751 9.31596 9.26865 9.31596ZM14.3458 9.31596H17.9588C18.1299 9.31596 18.282 9.16082 18.282 8.98629V5.68958C18.282 5.51505 18.1489 5.35991 17.9588 5.35991L14.3458 5.35991C14.1747 5.35991 14.0225 5.49566 14.0225 5.68958L14.0225 8.98629C14.0225 9.16082 14.1556 9.31596 14.3458 9.31596ZM19.3469 9.31596L22.9598 9.31596C23.131 9.31596 23.2831 9.16082 23.2831 8.98629V5.68958C23.2831 5.51505 23.131 5.35991 22.9598 5.35991L19.3469 5.35991C19.1757 5.35991 19.0236 5.49566 19.0236 5.68958V8.98629C19.0236 9.16082 19.1757 9.31596 19.3469 9.31596ZM19.3469 4.58422L22.9598 4.58422C23.131 4.58422 23.2831 4.44847 23.2831 4.25455V0.957846C23.2831 0.783315 23.131 0.628174 22.9598 0.628174L19.3469 0.628174C19.1757 0.628174 19.0236 0.763922 19.0236 0.957846V4.25455C19.0236 4.42908 19.1757 4.58422 19.3469 4.58422ZM24.386 14.0283L27.999 14.0283C28.1701 14.0283 28.3222 13.8926 28.3222 13.6986V10.4019C28.3222 10.2274 28.1891 10.0723 27.999 10.0723H24.386C24.2149 10.0723 24.0627 10.208 24.0627 10.4019V13.6986C24.0818 13.8926 24.2149 14.0283 24.386 14.0283Z" fill="#9E9E9E"/>
</svg>
