<svg width="56" height="21" viewBox="0 0 56 21" fill="none" xmlns="http://www.w3.org/2000/svg">
<path d="M4.55922 6.29554C4.48298 6.29554 4.40675 6.2193 4.48298 6.14307L5.01664 5.38069C5.09288 5.30446 5.16912 5.22822 5.32159 5.22822H14.9275C15.0037 5.22822 15.08 5.30446 15.0037 5.38069L14.5463 6.06683C14.4701 6.14307 14.3938 6.21931 14.2414 6.21931L4.55922 6.29554ZM0.518644 8.73514C0.442406 8.73514 0.366169 8.6589 0.442406 8.58266L0.976068 7.82029C1.05231 7.74405 1.12854 7.66781 1.28102 7.66781H13.5552C13.6315 7.66781 13.7077 7.74405 13.7077 7.82029L13.479 8.58266C13.479 8.6589 13.3265 8.73514 13.2503 8.73514H0.518644ZM6.99881 11.251C6.92258 11.251 6.84634 11.1747 6.92258 11.0985L7.30376 10.4124C7.38 10.3361 7.45624 10.2599 7.60871 10.2599H12.9453C13.0216 10.2599 13.0978 10.3361 13.0978 10.4124L13.0216 11.0223C13.0216 11.0985 12.9453 11.1747 12.8691 11.1747L6.99881 11.251ZM34.9017 5.76188L30.4037 6.90544C30.0225 6.98168 29.9462 7.05792 29.6413 6.60049C29.2601 6.14307 28.9552 5.83812 28.3453 5.60941C26.668 4.7708 24.9908 4.99951 23.4661 5.99059C21.6364 7.13415 20.7215 8.88761 20.7215 11.0985C20.7215 13.2331 22.2463 14.9866 24.3809 15.2915C26.2106 15.5203 27.7354 14.9104 28.9552 13.5381C29.1839 13.2331 29.4126 12.9282 29.7175 12.547H24.5334C23.9997 12.547 23.8473 12.1658 23.9997 11.7084C24.3809 10.8698 24.9908 9.49751 25.372 8.81137C25.4482 8.6589 25.677 8.35395 26.0581 8.35395H35.8165C35.7403 9.11632 35.7403 9.80246 35.664 10.5648C35.3591 12.4708 34.673 14.3005 33.4532 15.8252C31.5472 18.341 29.0314 19.942 25.8294 20.3994C23.1611 20.7806 20.7215 20.247 18.5869 18.646C16.6047 17.1212 15.4612 15.1391 15.1562 12.6995C14.775 9.80246 15.6899 7.13415 17.4433 4.84703C19.3493 2.3312 21.8651 0.73022 24.9908 0.196559C27.5066 -0.260865 29.9462 0.0440831 32.0809 1.49259C33.5294 2.40744 34.5205 3.70347 35.2066 5.30446C35.2829 5.60941 35.2066 5.68564 34.9017 5.76188Z" fill="#9E9E9E"/>
<path d="M43.7452 20.6282C41.3056 20.5519 39.0947 19.8658 37.1888 18.2648C35.5878 16.8925 34.5967 15.1391 34.2918 13.0807C33.8343 10.0312 34.6729 7.36286 36.5026 4.9995C38.4848 2.40744 40.8482 1.1114 44.0501 0.501504C46.7947 0.0440801 49.3867 0.272792 51.6739 1.87377C53.8085 3.32228 55.1045 5.30445 55.4857 7.89652C55.9432 11.5559 54.8758 14.4529 52.4362 16.9688C50.6828 18.7985 48.4719 19.8658 46.0323 20.3994C45.1937 20.5519 44.4313 20.5519 43.7452 20.6282ZM50.1491 9.80245C50.1491 9.42127 50.1491 9.19256 50.0729 8.88761C49.6155 6.2193 47.1759 4.69455 44.5838 5.30445C42.068 5.83811 40.467 7.4391 39.8571 9.95493C39.3997 12.0133 40.3907 14.148 42.2967 15.0628C43.7452 15.6727 45.2699 15.5965 46.6422 14.9104C48.8531 13.843 49.9966 12.0896 50.1491 9.80245Z" fill="#9E9E9E"/>
</svg>
