<svg width="24" height="54" viewBox="0 0 24 54" fill="none" xmlns="http://www.w3.org/2000/svg">
<path d="M11.8328 0.772924L13.2587 3.42935C13.5792 3.91956 13.9265 4.35347 14.3356 4.75756C15.5348 5.9323 16.6527 7.18608 17.6815 8.51034C20.0975 11.657 21.727 15.1514 22.8908 18.9307C23.5887 21.2393 23.9677 23.6076 23.996 26.0023C24.1129 33.1618 21.6385 39.3093 16.6497 44.4185C15.8382 45.2287 14.9615 45.972 14.0284 46.641C13.5341 46.641 13.3004 46.265 13.0967 45.9189C12.7258 45.2771 12.4789 44.5722 12.3687 43.8405C12.1934 42.9743 12.0782 42.1082 12.135 41.2139V40.8098C12.0949 40.7236 11.6592 0.976628 11.8328 0.772924Z" fill="#8B8B8B"/>
<path d="M11.8328 0.68515C11.7744 0.569221 11.7159 0.656995 11.6575 0.713304C11.6859 1.29295 11.4822 1.80966 11.1633 2.30318C10.8127 2.7934 10.3485 3.16934 9.88267 3.57343C7.29474 5.79595 5.25779 8.48053 3.62656 11.4831C1.45604 15.524 0.337393 19.8548 0.0201637 24.4141C-0.125094 26.0587 0.544427 31.8617 1.06702 33.5361C2.49289 37.9811 5.0541 41.7057 8.37165 44.9385C9.18643 45.7169 10.058 46.4389 10.9596 47.1328C11.2217 47.1328 11.2501 46.901 11.3102 46.7288C11.4251 46.3602 11.5127 45.9838 11.5723 45.6026L12.1567 41.2735L11.8328 0.68515Z" fill="#9E9E9E"/>
<path d="M13.2587 48.3998C13.3171 47.7373 13.6377 47.1875 13.9866 46.6393C13.636 46.4952 13.3755 46.2087 13.1718 45.8891C12.9962 45.5865 12.8508 45.2675 12.7377 44.9368C12.3303 43.7245 12.2435 42.4526 12.1266 41.2139V40.4636C11.9814 40.5796 11.9513 41.56 11.9513 41.7057C11.8664 43.015 11.6912 44.317 11.4271 45.6026C11.3403 46.1226 11.2818 46.641 10.9596 47.103C10.9596 47.161 10.9596 47.219 10.988 47.3051C11.5122 48.8353 11.6558 50.3938 11.7443 51.982V52.5616C11.7443 53.2539 11.7159 53.1081 12.2953 53.34C12.529 53.4261 12.7895 53.4559 13.0232 53.6282C13.1986 53.6282 13.2269 53.4841 13.2269 53.3682L13.1401 52.4159V49.7595C13.1117 49.2957 13.1986 48.8353 13.257 48.4014L13.2587 48.3998Z" fill="#C2BFBF"/>
</svg>
