<svg width="36" height="40" viewBox="0 0 36 40" fill="none" xmlns="http://www.w3.org/2000/svg">
<path d="M34.515 16.2282H22.5492C22.2608 16.2281 21.9842 16.1107 21.7802 15.9018C21.5763 15.6929 21.4616 15.4096 21.4615 15.1142V2.34131C21.4615 1.39544 20.7127 0.628174 19.7896 0.628174H15.5181C14.5945 0.628174 13.8461 1.39544 13.8461 2.34131V15.0369C13.8461 15.6955 13.3262 16.2309 12.6831 16.2338L8.76178 16.2529C8.11322 16.2565 7.5863 15.7176 7.58756 15.0539L7.61189 2.34419C7.614 1.39688 6.86489 0.628174 5.94 0.628174H1.67203C0.748266 0.628174 0 1.39544 0 2.34131V38.1072C0 38.9475 0.664594 39.6282 1.4843 39.6282H34.515C35.3354 39.6282 36 38.9475 36 38.1072V17.7492C36 16.9089 35.3354 16.2282 34.515 16.2282ZM28.9038 29.6569C28.9038 30.758 28.0322 31.6509 26.9571 31.6509H23.5814C22.5062 31.6509 21.6346 30.758 21.6346 29.6569V26.1993C21.6346 25.0981 22.5062 24.2053 23.5814 24.2053H26.9571C28.0322 24.2053 28.9038 25.0981 28.9038 26.1993V29.6569Z" fill="#9E9E9E"/>
</svg>
