<svg width="40" height="41" viewBox="0 0 40 41" fill="none" xmlns="http://www.w3.org/2000/svg">
<path fill-rule="evenodd" clip-rule="evenodd" d="M0 20.6282V0.628174H40V40.6282H0V20.6282ZM8.77 20.6982V22.3282H13.97V37.1282H17.66V22.3282H22.86V20.7282C22.86 19.8282 22.86 19.0982 22.82 19.0782C22.82 19.0482 19.65 19.0382 15.8 19.0382L8.8 19.0682V20.7082L8.77 20.6982ZM34.64 20.4582C33.94 19.7282 33.16 19.2682 32.14 19.0282L32.16 19.0082C31.47 18.8282 29.82 18.7682 29.12 18.9082C26.96 19.3082 25.45 20.7082 25.02 22.7082C24.88 23.2782 24.93 24.6982 25.08 25.2782C25.28 25.9482 25.71 26.7582 26.18 27.2782C27 28.1382 27.88 28.6982 29.95 29.5782C31.75 30.3782 32.39 30.7382 32.71 31.1782C32.94 31.5282 33.01 31.7382 33.01 32.1982C33.01 32.6982 32.85 33.0582 32.48 33.3982C31.62 34.1782 29.88 34.2682 28.58 33.5982C28.15 33.3582 27.41 32.6582 27.08 32.1382L26.82 31.7882L25.69 32.4482L24.19 33.3182L23.81 33.5582C23.77 33.6282 24.48 34.6982 24.85 35.0982C25.79 36.1282 27.32 36.9282 28.92 37.2282C29.67 37.3582 31.27 37.3782 31.97 37.2582C34.2 36.8882 35.76 35.7582 36.4 34.0882C36.97 32.5582 36.78 30.5182 35.93 29.2182C35.18 28.0582 33.94 27.2482 31.08 26.0182C29.53 25.3382 29.03 25.0082 28.76 24.4582C28.64 24.1982 28.58 24.0182 28.58 23.6982C28.58 22.6482 29.38 22.0182 30.58 22.0982C31.41 22.1582 31.94 22.4782 32.46 23.2182C32.62 23.4782 32.78 23.6482 32.82 23.6182C33.87 22.9682 35.6 21.7982 35.6 21.7382C35.56 21.5582 35.01 20.8582 34.64 20.4582Z" fill="#9E9E9E"/>
</svg>
